<svg width="125" height="125" viewBox="0 0 125 125" fill="none" xmlns="http://www.w3.org/2000/svg">
<g clip-path="url(#clip0)">
<path d="M74.7972 65.6666C84.5099 56.5296 96.5665 45.1824 98.2245 35.0865C99.3869 27.9485 98.2531 22.0621 94.847 17.5925C91.4074 13.081 86.1828 10.5066 78.86 9.72204C78.1562 9.65141 77.5135 9.61792 76.8757 9.61792C71.6934 9.61792 66.468 11.5454 62.4524 14.8053C58.4419 11.5454 53.2119 9.61792 48.0397 9.61792C47.3961 9.61792 46.7586 9.6511 46.0498 9.72204C38.7268 10.5063 33.4976 13.0807 30.0626 17.5925C26.6568 22.0621 25.5224 27.9485 26.6845 35.0865C28.3428 45.1873 40.3991 56.5299 50.1123 65.6666C50.1123 65.6666 54.9594 70.5325 56.414 71.7798C57.5112 72.72 59.8832 74.6096 62.4569 74.6096C65.027 74.6096 67.4035 72.72 68.495 71.7798C69.9499 70.5325 74.7972 65.6666 74.7972 65.6666Z" fill="#D43D21"/>
<path d="M74.7972 65.6666C84.5099 56.5296 96.5665 45.1824 98.2245 35.0865C99.3869 27.9485 98.2531 22.0621 94.847 17.5925C91.4074 13.081 86.1828 10.5066 78.86 9.72204C78.1562 9.65141 77.5135 9.61792 76.8757 9.61792C71.6934 9.61792 66.468 11.5454 62.4524 14.8053C58.4419 11.5454 53.2119 9.61792 48.0397 9.61792C47.3961 9.61792 46.7586 9.6511 46.0498 9.72204C38.7268 10.5063 33.4976 13.0807 30.0626 17.5925C26.6568 22.0621 25.5224 27.9485 26.6845 35.0865C28.3428 45.1873 40.3991 56.5299 50.1123 65.6666C50.1123 65.6666 54.9594 70.5325 56.414 71.7798C57.5112 72.72 59.8832 74.6096 62.4569 74.6096C65.027 74.6096 67.4035 72.72 68.495 71.7798C69.9499 70.5325 74.7972 65.6666 74.7972 65.6666Z" fill="#3B4047"/>
<path d="M74.7972 65.6666C84.5099 56.5296 96.5665 45.1824 98.2245 35.0865C99.3869 27.9485 98.2531 22.0621 94.847 17.5925C91.4074 13.081 86.1828 10.5066 78.86 9.72204C78.1562 9.65141 77.5135 9.61792 76.8757 9.61792C71.6934 9.61792 66.468 11.5454 62.4524 14.8053C58.4419 11.5454 53.2119 9.61792 48.0397 9.61792C47.3961 9.61792 46.7586 9.6511 46.0498 9.72204C38.7268 10.5063 33.4976 13.0807 30.0626 17.5925C26.6568 22.0621 25.5224 27.9485 26.6845 35.0865C28.3428 45.1873 40.3991 56.5299 50.1123 65.6666C50.1123 65.6666 54.9594 70.5325 56.414 71.7798C57.5112 72.72 59.8832 74.6096 62.4569 74.6096C65.027 74.6096 67.4035 72.72 68.495 71.7798C69.9499 70.5325 74.7972 65.6666 74.7972 65.6666Z" fill="url(#paint0_radial)"/>
<path d="M45.3101 81.3893C44.7816 80.9832 40.5903 77.8133 28.9645 77.0379C28.3264 76.9862 27.6788 76.5325 27.1117 76.155C26.9734 76.0628 26.8343 75.969 26.6955 75.8743C26.1097 75.4737 25.5337 75.0432 25.0895 74.5156C24.2021 73.4525 23.1959 72.5592 22.3502 71.3783C16.7003 63.4984 11.1588 61.9205 10.331 61.6041C9.23076 61.0756 8.4794 60.921 8.23432 60.1681C8.13477 59.8186 7.17577 50.6679 7.00498 49.132C6.52883 44.7194 6.05602 41.4503 3.52823 40.5625C2.87672 40.3305 2.41336 40.4066 1.93203 40.9212C1.3548 41.5264 1.01535 44.7297 0.849428 46.7561C0.849428 46.7561 -0.102872 58.5959 0.00916338 62.7008C0.121199 66.8056 7.22417 83.2035 11.03 87.0301C14.8359 90.8566 32.4501 100.868 32.4501 100.868C33.0836 101.396 36.6033 104.104 36.6033 107.657V111.661C36.6033 111.661 36.1013 115.366 40.161 115.366C44.2208 115.366 49.8527 115.382 53.8613 115.382C57.8699 115.382 57.0878 111.762 57.0908 110.494C57.0933 109.591 57.0951 108.871 57.096 108.53C57.0963 108.391 57.0963 108.313 57.0963 108.313C57.1441 107.004 57.3663 105.705 57.5222 104.406C57.9661 102.918 57.612 100.107 57.4038 99.0157C55.0224 88.4007 46.2636 82.1316 45.3101 81.3893Z" fill="#DEC8AE"/>
<path d="M45.3101 81.3893C44.7816 80.9832 40.5903 77.8133 28.9645 77.0379C28.3264 76.9862 27.6788 76.5325 27.1117 76.155C26.9734 76.0628 26.8343 75.969 26.6955 75.8743C26.1097 75.4737 25.5337 75.0432 25.0895 74.5156C24.2021 73.4525 23.1959 72.5592 22.3502 71.3783C16.7003 63.4984 11.1588 61.9205 10.331 61.6041C9.23076 61.0756 8.4794 60.921 8.23432 60.1681C8.13477 59.8186 7.17577 50.6679 7.00498 49.132C6.52883 44.7194 6.05602 41.4503 3.52823 40.5625C2.87672 40.3305 2.41336 40.4066 1.93203 40.9212C1.3548 41.5264 1.01535 44.7297 0.849428 46.7561C0.849428 46.7561 -0.102872 58.5959 0.00916338 62.7008C0.121199 66.8056 7.22417 83.2035 11.03 87.0301C14.8359 90.8566 32.4501 100.868 32.4501 100.868C33.0836 101.396 36.6033 104.104 36.6033 107.657V111.661C36.6033 111.661 36.1013 115.366 40.161 115.366C44.2208 115.366 49.8527 115.382 53.8613 115.382C57.8699 115.382 57.0878 111.762 57.0908 110.494C57.0933 109.591 57.0951 108.871 57.096 108.53C57.0963 108.391 57.0963 108.313 57.0963 108.313C57.1441 107.004 57.3663 105.705 57.5222 104.406C57.9661 102.918 57.612 100.107 57.4038 99.0157C55.0224 88.4007 46.2636 82.1316 45.3101 81.3893Z" fill="#43B9DA"/>
<path d="M124.06 46.756C123.894 44.7297 123.555 41.5263 122.977 40.9211C122.496 40.4069 122.033 40.3308 121.381 40.5624C118.853 41.4502 118.381 44.7193 117.904 49.1319C117.734 50.6678 116.775 59.8185 116.675 60.168C116.43 60.9209 115.679 61.0752 114.578 61.6041C113.751 61.9204 108.209 63.4986 102.559 71.3782C101.713 72.5592 100.707 73.4524 99.8198 74.5155C99.3756 75.0428 98.7996 75.4733 98.2139 75.8742C98.075 75.9689 97.9359 76.0627 97.7977 76.1549C97.2302 76.5325 96.583 76.9861 95.9448 77.0378C84.3191 77.8132 80.1278 80.9831 79.5993 81.3892C78.6458 82.1315 69.8869 88.4003 67.5055 99.0153C67.2973 100.106 66.9432 102.918 67.3871 104.405C67.543 105.705 67.7652 107.004 67.813 108.313C67.813 108.313 67.813 108.391 67.8133 108.529C67.8143 108.871 67.8161 109.59 67.8185 110.493C67.8219 111.761 67.0394 115.382 71.0481 115.382C75.0567 115.382 80.6886 115.365 84.7483 115.365C88.8081 115.365 88.3061 111.66 88.3061 111.66V107.656C88.3061 104.103 91.8257 101.396 92.4593 100.868C92.4593 100.868 111.455 89.9164 113.879 87.0297C116.303 84.1429 124.436 66.7038 124.9 62.7004C125.364 58.6969 124.06 46.756 124.06 46.756Z" fill="#DEC8AE"/>
<path d="M124.06 46.756C123.894 44.7297 123.555 41.5263 122.977 40.9211C122.496 40.4069 122.033 40.3308 121.381 40.5624C118.853 41.4502 118.381 44.7193 117.904 49.1319C117.734 50.6678 116.775 59.8185 116.675 60.168C116.43 60.9209 115.679 61.0752 114.578 61.6041C113.751 61.9204 108.209 63.4986 102.559 71.3782C101.713 72.5592 100.707 73.4524 99.8198 74.5155C99.3756 75.0428 98.7996 75.4733 98.2139 75.8742C98.075 75.9689 97.9359 76.0627 97.7977 76.1549C97.2302 76.5325 96.583 76.9861 95.9448 77.0378C84.3191 77.8132 80.1278 80.9831 79.5993 81.3892C78.6458 82.1315 69.8869 88.4003 67.5055 99.0153C67.2973 100.106 66.9432 102.918 67.3871 104.405C67.543 105.705 67.7652 107.004 67.813 108.313C67.813 108.313 67.813 108.391 67.8133 108.529C67.8143 108.871 67.8161 109.59 67.8185 110.493C67.8219 111.761 67.0394 115.382 71.0481 115.382C75.0567 115.382 80.6886 115.365 84.7483 115.365C88.8081 115.365 88.3061 111.66 88.3061 111.66V107.656C88.3061 104.103 91.8257 101.396 92.4593 100.868C92.4593 100.868 111.455 89.9164 113.879 87.0297C116.303 84.1429 124.436 66.7038 124.9 62.7004C125.364 58.6969 124.06 46.756 124.06 46.756Z" fill="#43B9DA"/>
</g>
<defs>
<radialGradient id="paint0_radial" cx="0" cy="0" r="1" gradientUnits="userSpaceOnUse" gradientTransform="translate(76.4567 68.968) rotate(90) scale(64.8285 72.2413)">
<stop stop-color="#488BAA" stop-opacity="0.5"/>
<stop offset="1" stop-color="#88B1B7" stop-opacity="0.01"/>
</radialGradient>
<clipPath id="clip0">
<rect width="125" height="125" fill="white"/>
</clipPath>
</defs>
</svg>
