<svg width="125" height="125" viewBox="0 0 125 125" fill="none" xmlns="http://www.w3.org/2000/svg">
<g clip-path="url(#clip0)">
<path d="M57.1121 77.5862H106.681C113.822 77.5862 119.612 83.3761 119.612 90.5172V125H44.181V90.5172C44.181 83.3761 49.971 77.5862 57.1121 77.5862Z" fill="#9B1E5A"/>
<path d="M57.1121 77.5862H106.681C113.822 77.5862 119.612 83.3761 119.612 90.5172V125H44.181V90.5172C44.181 83.3761 49.971 77.5862 57.1121 77.5862Z" fill="#3B4047"/>
<path d="M57.1121 77.5862H106.681C113.822 77.5862 119.612 83.3761 119.612 90.5172V125H44.181V90.5172C44.181 83.3761 49.971 77.5862 57.1121 77.5862Z" fill="url(#paint0_radial)"/>
<path d="M14.0086 30.1724H35.5604C40.3211 30.1724 44.181 34.0323 44.181 38.7931V120.69C44.181 123.07 42.2511 125 39.8707 125H9.69828C7.31791 125 5.38794 123.07 5.38794 120.69V38.7931C5.38794 34.0323 9.24789 30.1724 14.0086 30.1724Z" fill="#F98C96"/>
<path d="M14.0086 30.1724H35.5604C40.3211 30.1724 44.181 34.0323 44.181 38.7931V120.69C44.181 123.07 42.2511 125 39.8707 125H9.69828C7.31791 125 5.38794 123.07 5.38794 120.69V38.7931C5.38794 34.0323 9.24789 30.1724 14.0086 30.1724Z" fill="#43B9DA"/>
<path d="M11.8534 21.5518H37.7155V30.1724H11.8534V21.5518Z" fill="#9B1E5A"/>
<path d="M11.8534 21.5518H37.7155V30.1724H11.8534V21.5518Z" fill="#3B4047"/>
<path d="M11.8534 21.5518H37.7155V30.1724H11.8534V21.5518Z" fill="url(#paint1_radial)"/>
<path d="M20.4741 8.62073H29.0948V21.5518H20.4741V8.62073Z" fill="#AABECE"/>
<path d="M20.4741 8.62073H29.0948V21.5518H20.4741V8.62073Z" fill="#43B9DA"/>
<path d="M52.8017 8.62069H9.69824V0H18.3189L48.4913 4.31034L52.8017 8.62069Z" fill="#5A6470"/>
<path d="M52.8017 8.62069H9.69824V0H18.3189L48.4913 4.31034L52.8017 8.62069Z" fill="#3B4047"/>
<path d="M52.8017 8.62069H9.69824V0H18.3189L48.4913 4.31034L52.8017 8.62069Z" fill="url(#paint2_radial)"/>
<path d="M57.1121 62.5H106.681V77.5862H57.1121V62.5Z" fill="#394D5C"/>
<path d="M57.1121 62.5H106.681V77.5862H57.1121V62.5Z" fill="#3B4047"/>
<path d="M57.1121 62.5H106.681V77.5862H57.1121V62.5Z" fill="url(#paint3_radial)"/>
<path d="M63.5776 62.5H67.888V68.9655H63.5776V62.5Z" fill="#F4F4E6"/>
<path d="M63.5776 62.5H67.888V68.9655H63.5776V62.5Z" fill="#43B9DA"/>
<path d="M72.1984 62.5H76.5087V68.9655H72.1984V62.5Z" fill="#F4F4E6"/>
<path d="M72.1984 62.5H76.5087V68.9655H72.1984V62.5Z" fill="#43B9DA"/>
<path d="M87.2845 62.5H91.5949V68.9655H87.2845V62.5Z" fill="#F4F4E6"/>
<path d="M87.2845 62.5H91.5949V68.9655H87.2845V62.5Z" fill="#43B9DA"/>
<path d="M95.9053 62.5H100.216V68.9655H95.9053V62.5Z" fill="#F4F4E6"/>
<path d="M95.9053 62.5H100.216V68.9655H95.9053V62.5Z" fill="#43B9DA"/>
<path d="M44.181 92.6724H119.612V109.914H44.181V92.6724Z" fill="#DC93BF"/>
<path d="M44.181 92.6724H119.612V109.914H44.181V92.6724Z" fill="#43B9DA"/>
<path d="M5.38794 43.1034H44.181V120.69C44.181 123.07 42.2511 125 39.8707 125H9.69828C7.31791 125 5.38794 123.07 5.38794 120.69V43.1034Z" fill="#D9176C"/>
<path d="M5.38794 43.1034H44.181V120.69C44.181 123.07 42.2511 125 39.8707 125H9.69828C7.31791 125 5.38794 123.07 5.38794 120.69V43.1034Z" fill="#3B4047"/>
<path d="M5.38794 43.1034H44.181V120.69C44.181 123.07 42.2511 125 39.8707 125H9.69828C7.31791 125 5.38794 123.07 5.38794 120.69V43.1034Z" fill="url(#paint4_radial)"/>
<path d="M14.0086 101.293C12.8184 101.293 11.8534 100.328 11.8534 99.1379V43.1034C11.8534 41.9132 12.8184 40.9482 14.0086 40.9482C15.1988 40.9482 16.1637 41.9132 16.1637 43.1034V99.1379C16.1637 100.328 15.1988 101.293 14.0086 101.293Z" fill="#F4F4E6"/>
<path d="M14.0086 101.293C12.8184 101.293 11.8534 100.328 11.8534 99.1379V43.1034C11.8534 41.9132 12.8184 40.9482 14.0086 40.9482C15.1988 40.9482 16.1637 41.9132 16.1637 43.1034V99.1379C16.1637 100.328 15.1988 101.293 14.0086 101.293Z" fill="#43B9DA"/>
<path d="M14.0086 112.069C12.8184 112.069 11.8534 111.104 11.8534 109.914V107.759C11.8534 106.568 12.8184 105.603 14.0086 105.603C15.1988 105.603 16.1637 106.568 16.1637 107.759V109.914C16.1637 111.104 15.1988 112.069 14.0086 112.069Z" fill="#F4F4E6"/>
<path d="M14.0086 112.069C12.8184 112.069 11.8534 111.104 11.8534 109.914V107.759C11.8534 106.568 12.8184 105.603 14.0086 105.603C15.1988 105.603 16.1637 106.568 16.1637 107.759V109.914C16.1637 111.104 15.1988 112.069 14.0086 112.069Z" fill="#43B9DA"/>
<path d="M24.7844 51.7241H44.181V99.1379H24.7844V51.7241Z" fill="#F98C96"/>
<path d="M24.7844 51.7241H44.181V99.1379H24.7844V51.7241Z" fill="#43B9DA"/>
<path d="M98.0604 101.293C98.0604 109.625 91.3065 116.379 82.9741 116.379C74.6418 116.379 67.8879 109.625 67.8879 101.293C67.8879 92.9608 74.6418 86.2069 82.9741 86.2069C91.3065 86.2069 98.0604 92.9608 98.0604 101.293Z" fill="#D9176C"/>
<path d="M98.0604 101.293C98.0604 109.625 91.3065 116.379 82.9741 116.379C74.6418 116.379 67.8879 109.625 67.8879 101.293C67.8879 92.9608 74.6418 86.2069 82.9741 86.2069C91.3065 86.2069 98.0604 92.9608 98.0604 101.293Z" fill="#3B4047"/>
<path d="M98.0604 101.293C98.0604 109.625 91.3065 116.379 82.9741 116.379C74.6418 116.379 67.8879 109.625 67.8879 101.293C67.8879 92.9608 74.6418 86.2069 82.9741 86.2069C91.3065 86.2069 98.0604 92.9608 98.0604 101.293Z" fill="url(#paint5_radial)"/>
<path d="M98.0604 101.293C98.0604 109.625 91.3065 116.379 82.9741 116.379C74.6418 116.379 67.8879 109.625 67.8879 101.293C67.8879 92.9608 74.6418 86.2069 82.9741 86.2069C91.3065 86.2069 98.0604 92.9608 98.0604 101.293Z" fill="#43B9DA"/>
</g>
<defs>
<radialGradient id="paint0_radial" cx="0" cy="0" r="1" gradientUnits="userSpaceOnUse" gradientTransform="translate(96.4801 120.884) rotate(90) scale(47.2947 75.2416)">
<stop stop-color="#488BAA" stop-opacity="0.5"/>
<stop offset="1" stop-color="#88B1B7" stop-opacity="0.01"/>
</radialGradient>
<radialGradient id="paint1_radial" cx="0" cy="0" r="1" gradientUnits="userSpaceOnUse" gradientTransform="translate(29.7845 29.4241) rotate(90) scale(8.59904 25.7971)">
<stop stop-color="#488BAA" stop-opacity="0.5"/>
<stop offset="1" stop-color="#88B1B7" stop-opacity="0.01"/>
</radialGradient>
<radialGradient id="paint2_radial" cx="0" cy="0" r="1" gradientUnits="userSpaceOnUse" gradientTransform="translate(39.5834 7.87237) rotate(90) scale(8.59904 42.9952)">
<stop stop-color="#488BAA" stop-opacity="0.5"/>
<stop offset="1" stop-color="#88B1B7" stop-opacity="0.01"/>
</radialGradient>
<radialGradient id="paint3_radial" cx="0" cy="0" r="1" gradientUnits="userSpaceOnUse" gradientTransform="translate(91.48 76.2766) rotate(90) scale(15.0483 49.4445)">
<stop stop-color="#488BAA" stop-opacity="0.5"/>
<stop offset="1" stop-color="#88B1B7" stop-opacity="0.01"/>
</radialGradient>
<radialGradient id="paint4_radial" cx="0" cy="0" r="1" gradientUnits="userSpaceOnUse" gradientTransform="translate(32.2846 117.891) rotate(90) scale(81.6909 38.6957)">
<stop stop-color="#488BAA" stop-opacity="0.5"/>
<stop offset="1" stop-color="#88B1B7" stop-opacity="0.01"/>
</radialGradient>
<radialGradient id="paint5_radial" cx="0" cy="0" r="1" gradientUnits="userSpaceOnUse" gradientTransform="translate(88.8076 113.76) rotate(90) scale(30.0966)">
<stop stop-color="#488BAA" stop-opacity="0.5"/>
<stop offset="1" stop-color="#88B1B7" stop-opacity="0.01"/>
</radialGradient>
<clipPath id="clip0">
<rect width="125" height="125" fill="white"/>
</clipPath>
</defs>
</svg>
