<svg width="125" height="125" viewBox="0 0 125 125" fill="none" xmlns="http://www.w3.org/2000/svg">
<path d="M81.8965 81.8965H73.2759V88.3621H81.8965V81.8965Z" fill="#707487"/>
<path d="M81.8965 81.8965H73.2759V88.3621H81.8965V81.8965Z" fill="#3B4047"/>
<path d="M81.8965 81.8965H73.2759V88.3621H81.8965V81.8965Z" fill="url(#paint0_radial)"/>
<path d="M118.534 81.8965H112.069C110.879 81.8965 109.914 82.8616 109.914 84.0518C109.914 85.2419 110.879 86.207 112.069 86.207H118.534C119.725 86.207 120.69 87.1721 120.69 88.3623V101.293C120.69 103.674 118.76 105.604 116.379 105.604H112.069C110.879 105.604 109.914 106.569 109.914 107.759C109.914 108.949 110.879 109.914 112.069 109.914H116.379C121.14 109.914 125 106.055 125 101.294V88.3626C125 84.7913 122.105 81.8965 118.534 81.8965Z" fill="#AFF5A0"/>
<path d="M118.534 81.8965H112.069C110.879 81.8965 109.914 82.8616 109.914 84.0518C109.914 85.2419 110.879 86.207 112.069 86.207H118.534C119.725 86.207 120.69 87.1721 120.69 88.3623V101.293C120.69 103.674 118.76 105.604 116.379 105.604H112.069C110.879 105.604 109.914 106.569 109.914 107.759C109.914 108.949 110.879 109.914 112.069 109.914H116.379C121.14 109.914 125 106.055 125 101.294V88.3626C125 84.7913 122.105 81.8965 118.534 81.8965Z" fill="#43B9DA"/>
<path d="M56.0344 8.62061H30.1724V34.4827H56.0344V8.62061Z" fill="#959CB3"/>
<path d="M56.0344 8.62061H30.1724V34.4827H56.0344V8.62061Z" fill="#3B4047"/>
<path d="M56.0344 8.62061H30.1724V34.4827H56.0344V8.62061Z" fill="url(#paint1_radial)"/>
<path d="M38.793 8.62061H30.1724V34.4827H38.793V8.62061Z" fill="#82889D"/>
<path d="M38.793 8.62061H30.1724V34.4827H38.793V8.62061Z" fill="#3B4047"/>
<path d="M38.793 8.62061H30.1724V34.4827H38.793V8.62061Z" fill="url(#paint2_radial)"/>
<path d="M2.15527 49.5688V116.379C2.15527 117.57 3.12036 118.535 4.31055 118.535H73.2761C74.4663 118.535 75.4314 117.57 75.4314 116.379V49.5688H2.15527Z" fill="#AFF5A0"/>
<path d="M2.15527 49.5688V116.379C2.15527 117.57 3.12036 118.535 4.31055 118.535H73.2761C74.4663 118.535 75.4314 117.57 75.4314 116.379V49.5688H2.15527Z" fill="#43B9DA"/>
<path d="M2.15527 47.4138V116.379C2.15527 117.57 3.12036 118.535 4.31055 118.535H25.8623V47.4141H2.15527V47.4138Z" fill="#707487"/>
<path d="M2.15527 47.4138V116.379C2.15527 117.57 3.12036 118.535 4.31055 118.535H25.8623V47.4141H2.15527V47.4138Z" fill="#3B4047"/>
<path d="M2.15527 47.4138V116.379C2.15527 117.57 3.12036 118.535 4.31055 118.535H25.8623V47.4141H2.15527V47.4138Z" fill="url(#paint3_radial)"/>
<path d="M68.9656 34.4827H8.62061C5.04981 34.4827 2.15503 37.3774 2.15503 40.9482V49.5688H75.4309V40.9482C75.4312 37.3774 72.5364 34.4827 68.9656 34.4827Z" fill="#E4EAF6"/>
<path d="M79.7415 77.5862V120.69C79.7415 121.88 80.844 122.845 82.2046 122.845H111.761C113.122 122.845 114.224 121.88 114.224 120.69V77.5862H79.7415Z" fill="#E4EAF6"/>
<path d="M92.6724 120.69V77.5862H79.7412V120.69C79.7412 121.88 80.8438 122.845 82.2044 122.845H95.1355C93.7751 122.845 92.6724 121.88 92.6724 120.69Z" fill="#D5DCEC"/>
<path d="M12.9312 122.845H8.62061C7.43042 122.845 6.46533 121.88 6.46533 120.689V116.379H15.0859V120.69C15.0862 121.88 14.1213 122.845 12.9312 122.845Z" fill="#464655"/>
<path d="M12.9312 122.845H8.62061C7.43042 122.845 6.46533 121.88 6.46533 120.689V116.379H15.0859V120.69C15.0862 121.88 14.1213 122.845 12.9312 122.845Z" fill="#3B4047"/>
<path d="M12.9312 122.845H8.62061C7.43042 122.845 6.46533 121.88 6.46533 120.689V116.379H15.0859V120.69C15.0862 121.88 14.1213 122.845 12.9312 122.845Z" fill="url(#paint4_radial)"/>
<path d="M68.9656 122.845H64.6553C63.4651 122.845 62.5 121.88 62.5 120.689V116.379H71.1206V120.69C71.1206 121.88 70.1558 122.845 68.9656 122.845Z" fill="#464655"/>
<path d="M68.9656 122.845H64.6553C63.4651 122.845 62.5 121.88 62.5 120.689V116.379H71.1206V120.69C71.1206 121.88 70.1558 122.845 68.9656 122.845Z" fill="#3B4047"/>
<path d="M68.9656 122.845H64.6553C63.4651 122.845 62.5 121.88 62.5 120.689V116.379H71.1206V120.69C71.1206 121.88 70.1558 122.845 68.9656 122.845Z" fill="url(#paint5_radial)"/>
<path d="M75.4312 116.379V114.224H25.8621V118.534H73.2759C74.4661 118.534 75.4312 117.57 75.4312 116.379Z" fill="#96D791"/>
<path d="M75.4312 116.379V114.224H25.8621V118.534H73.2759C74.4661 118.534 75.4312 117.57 75.4312 116.379Z" fill="#43B9DA"/>
<path d="M2.15527 116.379V114.224H25.8621V118.534H4.3103C3.12012 118.534 2.15527 117.57 2.15527 116.379Z" fill="#5B5D6E"/>
<path d="M2.15527 116.379V114.224H25.8621V118.534H4.3103C3.12012 118.534 2.15527 117.57 2.15527 116.379Z" fill="#3B4047"/>
<path d="M2.15527 116.379V114.224H25.8621V118.534H4.3103C3.12012 118.534 2.15527 117.57 2.15527 116.379Z" fill="url(#paint6_radial)"/>
<path d="M56.0344 8.62061H30.1724C28.9822 8.62061 28.0171 7.65552 28.0171 6.46533V4.31006C28.0171 3.11987 28.9822 2.15479 30.1724 2.15479H56.0344C57.2246 2.15479 58.1897 3.11987 58.1897 4.31006V6.46533C58.1897 7.65576 57.2246 8.62061 56.0344 8.62061Z" fill="#82889D"/>
<path d="M56.0344 8.62061H30.1724C28.9822 8.62061 28.0171 7.65552 28.0171 6.46533V4.31006C28.0171 3.11987 28.9822 2.15479 30.1724 2.15479H56.0344C57.2246 2.15479 58.1897 3.11987 58.1897 4.31006V6.46533C58.1897 7.65576 57.2246 8.62061 56.0344 8.62061Z" fill="#3B4047"/>
<path d="M56.0344 8.62061H30.1724C28.9822 8.62061 28.0171 7.65552 28.0171 6.46533V4.31006C28.0171 3.11987 28.9822 2.15479 30.1724 2.15479H56.0344C57.2246 2.15479 58.1897 3.11987 58.1897 4.31006V6.46533C58.1897 7.65576 57.2246 8.62061 56.0344 8.62061Z" fill="url(#paint7_radial)"/>
<path d="M56.0344 34.4827H30.1724V47.4138H56.0344V34.4827Z" fill="#C7CFE2"/>
<path d="M56.0344 34.4827H30.1724V47.4138H56.0344V34.4827Z" fill="#3B4047"/>
<path d="M56.0344 34.4827H30.1724V47.4138H56.0344V34.4827Z" fill="url(#paint8_radial)"/>
<path d="M75.4312 51.7241H2.15527C0.965088 51.7241 0 50.759 0 49.5688C0 48.3787 0.965088 47.4136 2.15527 47.4136H75.4312C76.6213 47.4136 77.5864 48.3787 77.5864 49.5688C77.5862 50.7593 76.6213 51.7241 75.4312 51.7241Z" fill="#959CB3"/>
<path d="M75.4312 51.7241H2.15527C0.965088 51.7241 0 50.759 0 49.5688C0 48.3787 0.965088 47.4136 2.15527 47.4136H75.4312C76.6213 47.4136 77.5864 48.3787 77.5864 49.5688C77.5862 50.7593 76.6213 51.7241 75.4312 51.7241Z" fill="#3B4047"/>
<path d="M75.4312 51.7241H2.15527C0.965088 51.7241 0 50.759 0 49.5688C0 48.3787 0.965088 47.4136 2.15527 47.4136H75.4312C76.6213 47.4136 77.5864 48.3787 77.5864 49.5688C77.5862 50.7593 76.6213 51.7241 75.4312 51.7241Z" fill="url(#paint9_radial)"/>
<path d="M43.1035 73.2758C41.9133 73.2758 40.9482 72.3107 40.9482 71.1205V36.8913C40.9482 34.6298 42.0986 32.5715 44.0242 31.3844L69.9915 15.4057C71.0007 14.7797 72.3308 15.0964 72.9558 16.1117C73.5798 17.1252 73.2642 18.4523 72.2498 19.0761L46.2834 35.0549C45.6426 35.4506 45.2583 36.1366 45.2583 36.891V71.1205C45.2585 72.3107 44.2937 73.2758 43.1035 73.2758Z" fill="#E4EAF6"/>
<path d="M43.1035 80.8191C46.0792 80.8191 48.4915 78.4068 48.4915 75.4312C48.4915 72.4555 46.0792 70.0432 43.1035 70.0432C40.1278 70.0432 37.7156 72.4555 37.7156 75.4312C37.7156 78.4068 40.1278 80.8191 43.1035 80.8191Z" fill="white"/>
<path d="M43.1035 105.603C47.8645 105.603 51.7241 101.744 51.7241 96.9828C51.7241 92.2218 47.8645 88.3622 43.1035 88.3622C38.3425 88.3622 34.4829 92.2218 34.4829 96.9828C34.4829 101.744 38.3425 105.603 43.1035 105.603Z" fill="#959CB3"/>
<path d="M43.1035 105.603C47.8645 105.603 51.7241 101.744 51.7241 96.9828C51.7241 92.2218 47.8645 88.3622 43.1035 88.3622C38.3425 88.3622 34.4829 92.2218 34.4829 96.9828C34.4829 101.744 38.3425 105.603 43.1035 105.603Z" fill="#3B4047"/>
<path d="M43.1035 105.603C47.8645 105.603 51.7241 101.744 51.7241 96.9828C51.7241 92.2218 47.8645 88.3622 43.1035 88.3622C38.3425 88.3622 34.4829 92.2218 34.4829 96.9828C34.4829 101.744 38.3425 105.603 43.1035 105.603Z" fill="url(#paint10_radial)"/>
<path d="M43.1035 99.1379C41.9133 99.1379 40.9482 98.1729 40.9482 96.9827V88.3621C40.9482 87.1719 41.9133 86.2068 43.1035 86.2068C44.2937 86.2068 45.2588 87.1719 45.2588 88.3621V96.9827C45.2585 98.1729 44.2937 99.1379 43.1035 99.1379Z" fill="#707487"/>
<path d="M43.1035 99.1379C41.9133 99.1379 40.9482 98.1729 40.9482 96.9827V88.3621C40.9482 87.1719 41.9133 86.2068 43.1035 86.2068C44.2937 86.2068 45.2588 87.1719 45.2588 88.3621V96.9827C45.2585 98.1729 44.2937 99.1379 43.1035 99.1379Z" fill="#3B4047"/>
<path d="M43.1035 99.1379C41.9133 99.1379 40.9482 98.1729 40.9482 96.9827V88.3621C40.9482 87.1719 41.9133 86.2068 43.1035 86.2068C44.2937 86.2068 45.2588 87.1719 45.2588 88.3621V96.9827C45.2585 98.1729 44.2937 99.1379 43.1035 99.1379Z" fill="url(#paint11_radial)"/>
<path d="M114.224 77.5862H79.7415C78.5513 77.5862 77.5862 76.6211 77.5862 75.4309C77.5862 74.2407 78.5513 73.2756 79.7415 73.2756H114.224C115.414 73.2756 116.379 74.2407 116.379 75.4309C116.379 76.6213 115.414 77.5862 114.224 77.5862Z" fill="#959CB3"/>
<path d="M114.224 77.5862H79.7415C78.5513 77.5862 77.5862 76.6211 77.5862 75.4309C77.5862 74.2407 78.5513 73.2756 79.7415 73.2756H114.224C115.414 73.2756 116.379 74.2407 116.379 75.4309C116.379 76.6213 115.414 77.5862 114.224 77.5862Z" fill="#3B4047"/>
<path d="M114.224 77.5862H79.7415C78.5513 77.5862 77.5862 76.6211 77.5862 75.4309C77.5862 74.2407 78.5513 73.2756 79.7415 73.2756H114.224C115.414 73.2756 116.379 74.2407 116.379 75.4309C116.379 76.6213 115.414 77.5862 114.224 77.5862Z" fill="url(#paint12_radial)"/>
<path d="M82.8984 81.8965H79.7415V88.3621H88.3621L84.6917 82.8562C84.2917 82.2568 83.6189 81.8965 82.8984 81.8965Z" fill="#959CB3"/>
<path d="M82.8984 81.8965H79.7415V88.3621H88.3621L84.6917 82.8562C84.2917 82.2568 83.6189 81.8965 82.8984 81.8965Z" fill="#3B4047"/>
<path d="M82.8984 81.8965H79.7415V88.3621H88.3621L84.6917 82.8562C84.2917 82.2568 83.6189 81.8965 82.8984 81.8965Z" fill="url(#paint13_radial)"/>
<path d="M107.759 88.3621C106.568 88.3621 105.603 87.397 105.603 86.2068V84.0515C105.603 82.8613 106.568 81.8962 107.759 81.8962C108.949 81.8962 109.914 82.8613 109.914 84.0515V86.2068C109.914 87.397 108.949 88.3621 107.759 88.3621Z" fill="white"/>
<path d="M107.759 105.604C106.568 105.604 105.603 104.638 105.603 103.448V94.8276C105.603 93.6375 106.568 92.6724 107.759 92.6724C108.949 92.6724 109.914 93.6375 109.914 94.8276V103.448C109.914 104.638 108.949 105.604 107.759 105.604Z" fill="#F2F5FB"/>
<path d="M38.793 34.4827H30.1724V47.4138H38.793V34.4827Z" fill="#AFB9D2"/>
<path d="M38.793 34.4827H30.1724V47.4138H38.793V34.4827Z" fill="#3B4047"/>
<path d="M38.793 34.4827H30.1724V47.4138H38.793V34.4827Z" fill="url(#paint14_radial)"/>
<path d="M36.6379 6.4657V4.31043C36.6379 3.12024 37.603 2.15515 38.7932 2.15515H30.1726C28.9824 2.15515 28.0173 3.12024 28.0173 4.31043V6.4657C28.0173 7.65588 28.9824 8.62097 30.1726 8.62097H38.7932C37.603 8.62073 36.6379 7.65588 36.6379 6.4657Z" fill="#6D7083"/>
<path d="M36.6379 6.4657V4.31043C36.6379 3.12024 37.603 2.15515 38.7932 2.15515H30.1726C28.9824 2.15515 28.0173 3.12024 28.0173 4.31043V6.4657C28.0173 7.65588 28.9824 8.62097 30.1726 8.62097H38.7932C37.603 8.62073 36.6379 7.65588 36.6379 6.4657Z" fill="#3B4047"/>
<path d="M36.6379 6.4657V4.31043C36.6379 3.12024 37.603 2.15515 38.7932 2.15515H30.1726C28.9824 2.15515 28.0173 3.12024 28.0173 4.31043V6.4657C28.0173 7.65588 28.9824 8.62097 30.1726 8.62097H38.7932C37.603 8.62073 36.6379 7.65588 36.6379 6.4657Z" fill="url(#paint15_radial)"/>
<defs>
<radialGradient id="paint0_radial" cx="0" cy="0" r="1" gradientUnits="userSpaceOnUse" gradientTransform="translate(79.2529 87.8008) rotate(90) scale(6.44934 8.59896)">
<stop stop-color="#488BAA" stop-opacity="0.5"/>
<stop offset="1" stop-color="#88B1B7" stop-opacity="0.01"/>
</radialGradient>
<radialGradient id="paint1_radial" cx="0" cy="0" r="1" gradientUnits="userSpaceOnUse" gradientTransform="translate(48.1035 32.2377) rotate(90) scale(25.7971)">
<stop stop-color="#488BAA" stop-opacity="0.5"/>
<stop offset="1" stop-color="#88B1B7" stop-opacity="0.01"/>
</radialGradient>
<radialGradient id="paint2_radial" cx="0" cy="0" r="1" gradientUnits="userSpaceOnUse" gradientTransform="translate(36.1493 32.2377) rotate(90) scale(25.7971 8.59896)">
<stop stop-color="#488BAA" stop-opacity="0.5"/>
<stop offset="1" stop-color="#88B1B7" stop-opacity="0.01"/>
</radialGradient>
<radialGradient id="paint3_radial" cx="0" cy="0" r="1" gradientUnits="userSpaceOnUse" gradientTransform="translate(18.5922 112.361) rotate(90) scale(70.9423 23.6475)">
<stop stop-color="#488BAA" stop-opacity="0.5"/>
<stop offset="1" stop-color="#88B1B7" stop-opacity="0.01"/>
</radialGradient>
<radialGradient id="paint4_radial" cx="0" cy="0" r="1" gradientUnits="userSpaceOnUse" gradientTransform="translate(12.4423 122.283) rotate(90) scale(6.4491 8.59896)">
<stop stop-color="#488BAA" stop-opacity="0.5"/>
<stop offset="1" stop-color="#88B1B7" stop-opacity="0.01"/>
</radialGradient>
<radialGradient id="paint5_radial" cx="0" cy="0" r="1" gradientUnits="userSpaceOnUse" gradientTransform="translate(68.477 122.283) rotate(90) scale(6.4491 8.59896)">
<stop stop-color="#488BAA" stop-opacity="0.5"/>
<stop offset="1" stop-color="#88B1B7" stop-opacity="0.01"/>
</radialGradient>
<radialGradient id="paint6_radial" cx="0" cy="0" r="1" gradientUnits="userSpaceOnUse" gradientTransform="translate(18.5921 118.16) rotate(90) scale(4.29948 23.6473)">
<stop stop-color="#488BAA" stop-opacity="0.5"/>
<stop offset="1" stop-color="#88B1B7" stop-opacity="0.01"/>
</radialGradient>
<radialGradient id="paint7_radial" cx="0" cy="0" r="1" gradientUnits="userSpaceOnUse" gradientTransform="translate(48.9369 8.05934) rotate(90) scale(6.44958 30.0968)">
<stop stop-color="#488BAA" stop-opacity="0.5"/>
<stop offset="1" stop-color="#88B1B7" stop-opacity="0.01"/>
</radialGradient>
<radialGradient id="paint8_radial" cx="0" cy="0" r="1" gradientUnits="userSpaceOnUse" gradientTransform="translate(48.1035 46.2913) rotate(90) scale(12.8987 25.7971)">
<stop stop-color="#488BAA" stop-opacity="0.5"/>
<stop offset="1" stop-color="#88B1B7" stop-opacity="0.01"/>
</radialGradient>
<radialGradient id="paint9_radial" cx="0" cy="0" r="1" gradientUnits="userSpaceOnUse" gradientTransform="translate(53.7935 51.3499) rotate(90) scale(4.29972 77.3916)">
<stop stop-color="#488BAA" stop-opacity="0.5"/>
<stop offset="1" stop-color="#88B1B7" stop-opacity="0.01"/>
</radialGradient>
<radialGradient id="paint10_radial" cx="0" cy="0" r="1" gradientUnits="userSpaceOnUse" gradientTransform="translate(46.4369 104.107) rotate(90) scale(17.1979)">
<stop stop-color="#488BAA" stop-opacity="0.5"/>
<stop offset="1" stop-color="#88B1B7" stop-opacity="0.01"/>
</radialGradient>
<radialGradient id="paint11_radial" cx="0" cy="0" r="1" gradientUnits="userSpaceOnUse" gradientTransform="translate(43.9369 98.0154) rotate(90) scale(12.8987 4.29972)">
<stop stop-color="#488BAA" stop-opacity="0.5"/>
<stop offset="1" stop-color="#88B1B7" stop-opacity="0.01"/>
</radialGradient>
<radialGradient id="paint12_radial" cx="0" cy="0" r="1" gradientUnits="userSpaceOnUse" gradientTransform="translate(104.483 77.212) rotate(90) scale(4.29972 38.6958)">
<stop stop-color="#488BAA" stop-opacity="0.5"/>
<stop offset="1" stop-color="#88B1B7" stop-opacity="0.01"/>
</radialGradient>
<radialGradient id="paint13_radial" cx="0" cy="0" r="1" gradientUnits="userSpaceOnUse" gradientTransform="translate(85.7184 87.8008) rotate(90) scale(6.44934 8.59896)">
<stop stop-color="#488BAA" stop-opacity="0.5"/>
<stop offset="1" stop-color="#88B1B7" stop-opacity="0.01"/>
</radialGradient>
<radialGradient id="paint14_radial" cx="0" cy="0" r="1" gradientUnits="userSpaceOnUse" gradientTransform="translate(36.1493 46.2913) rotate(90) scale(12.8987 8.59896)">
<stop stop-color="#488BAA" stop-opacity="0.5"/>
<stop offset="1" stop-color="#88B1B7" stop-opacity="0.01"/>
</radialGradient>
<radialGradient id="paint15_radial" cx="0" cy="0" r="1" gradientUnits="userSpaceOnUse" gradientTransform="translate(35.4886 8.0597) rotate(90) scale(6.44958 10.7488)">
<stop stop-color="#488BAA" stop-opacity="0.5"/>
<stop offset="1" stop-color="#88B1B7" stop-opacity="0.01"/>
</radialGradient>
</defs>
</svg>
