<?xml version="1.0" encoding="UTF-8"?>
<!DOCTYPE svg PUBLIC "-//W3C//DTD SVG 1.1//EN" "http://www.w3.org/Graphics/SVG/1.1/DTD/svg11.dtd">
<!-- Creator: CorelDRAW -->
<svg xmlns="http://www.w3.org/2000/svg" xml:space="preserve" width="125px" height="125px" version="1.1" style="shape-rendering:geometricPrecision; text-rendering:geometricPrecision; image-rendering:optimizeQuality; fill-rule:evenodd; clip-rule:evenodd"
viewBox="0 0 125 125"
 xmlns:xlink="http://www.w3.org/1999/xlink"
 xmlns:xodm="http://www.corel.com/coreldraw/odm/2003">
 <defs>
  <style type="text/css">
   <![CDATA[
    .fil0 {fill:none}
    .fil1 {fill:#080808}
    .fil2 {fill:#3B4047}
    .fil4 {fill:#43B9DA}
    .fil3 {fill:#D5DCEC}
    .fil11 {fill:url(#id0)}
    .fil13 {fill:url(#id1)}
    .fil12 {fill:url(#id2)}
    .fil5 {fill:url(#id3)}
    .fil7 {fill:url(#id4)}
    .fil8 {fill:url(#id5)}
    .fil6 {fill:url(#id6)}
    .fil9 {fill:url(#id7)}
    .fil10 {fill:url(#id8)}
   ]]>
  </style>
  <radialGradient id="id0" gradientUnits="userSpaceOnUse" gradientTransform="matrix(-1.31501E+000 1.07105 -1.07177E+000 -1.29733E+000 207 69)" cx="62.21" cy="58.96" r="2.76" fx="62.21" fy="58.96">
   <stop offset="0" style="stop-opacity:0.501961; stop-color:#488BAA"/>
   <stop offset="1" style="stop-opacity:0.0117647; stop-color:#88B1B7"/>
  </radialGradient>
  <radialGradient id="id1" gradientUnits="userSpaceOnUse" gradientTransform="matrix(1.43612 -0 -0 1.44826 -28 -10)" xlink:href="#id0" cx="64.58" cy="22.24" r="0.9" fx="64.58" fy="22.24">
  </radialGradient>
  <radialGradient id="id2" gradientUnits="userSpaceOnUse" gradientTransform="matrix(1.42937 -0 -0 1.42937 2 -9)" xlink:href="#id0" cx="-4.76" cy="22.03" r="0.89" fx="-4.76" fy="22.03">
  </radialGradient>
  <radialGradient id="id3" gradientUnits="userSpaceOnUse" gradientTransform="matrix(1.43579 -0 -0 1.43579 2 -65)" xlink:href="#id0" cx="-4.87" cy="148.61" r="0.9" fx="-4.87" fy="148.61">
  </radialGradient>
  <radialGradient id="id4" gradientUnits="userSpaceOnUse" gradientTransform="matrix(1.89701 -0 -0 1.9292 -90 -41)" xlink:href="#id0" cx="99.8" cy="43.82" r="14.36" fx="99.8" fy="43.82">
  </radialGradient>
  <radialGradient id="id5" gradientUnits="userSpaceOnUse" gradientTransform="matrix(1.50812 -0 -0 1.50812 -35 -36)" xlink:href="#id0" cx="69.19" cy="70.18" r="1.31" fx="69.19" fy="70.18">
  </radialGradient>
  <radialGradient id="id6" gradientUnits="userSpaceOnUse" gradientTransform="matrix(1.38959 -0 -0 1.39762 -26 -59)" xlink:href="#id0" cx="65.98" cy="148.61" r="0.9" fx="65.98" fy="148.61">
  </radialGradient>
  <radialGradient id="id7" gradientUnits="userSpaceOnUse" gradientTransform="matrix(1.52307 -0 -0 1.52307 -36 -33)" xlink:href="#id0" cx="69.45" cy="63.8" r="1.75" fx="69.45" fy="63.8">
  </radialGradient>
  <radialGradient id="id8" gradientUnits="userSpaceOnUse" gradientTransform="matrix(1.1526 -0 -0 1.1526 -10 -10)" xlink:href="#id0" cx="63.87" cy="64.07" r="2.31" fx="63.87" fy="64.07">
  </radialGradient>
 </defs>
 <g id="Layer_x0020_1">
  <metadata id="CorelCorpID_0Corel-Layer"/>
  <g id="_105553356212416">
   <path class="fil0" d="M82.66 51.64l28.77 0c0.85,0 1.14,0 1.14,-0.85 -0.29,-3.13 -0.57,-5.98 -1.14,-9.4 -0.86,-5.41 -2,-10.82 -3.71,-15.95 -1.99,-6.83 -4.84,-13.66 -7.97,-19.93 -0.28,-0.57 -0.57,-0.85 -1.14,-0.85l-13.95 0c-0.86,0 -0.86,0.28 -0.86,0.85l0 5.13c0.29,2.84 -1.99,5.41 -4.84,5.69 -0.28,0 -0.56,0 -0.85,0 -5.41,0.29 -10.82,0 -16.23,0l-16.52 0c-3.13,0 -5.69,-2.56 -5.69,-5.69 0,0 0,0 0,0l0 -5.13c0,-0.85 -0.29,-0.85 -1.14,-0.85l-13.96 0c-0.56,0 -1.14,0.28 -1.14,0.85 -3.7,8.26 -6.83,16.8 -9.11,25.35 -1.71,6.54 -2.56,13.1 -3.42,19.93 0,0.85 0.29,0.85 0.86,0.85l30.19 0c0.85,0 0.85,-0.28 1.13,-1.14 1.14,-8.82 8.26,-15.94 17.09,-16.8 9.97,-0.85 18.79,6.27 20.22,15.95 0.57,1.99 0.57,1.99 2.28,1.99l0 0 0 0 -0.01 0z"/>
   <path class="fil0" d="M42.23 54.21l-30.19 0c-0.57,0 -1.13,0 -1.13,0.85 0,1.42 -0.29,3.13 -0.29,4.27 0,9.12 0.85,18.23 2.85,27.34 2.28,9.97 5.69,19.65 10.25,28.76 0.28,0.57 0.57,0.86 1.14,0.86l17.08 0c0.86,0 1.14,-0.29 1.14,-1.14 0,-9.97 0,-19.65 0,-29.9l0 -29.91c0,-0.85 -0.28,-1.13 -0.85,-1.13l0 0 0 0z"/>
   <path class="fil0" d="M45.93 13.77l32.47 0c1.7,0 2.84,-1.14 3.13,-2.56 0,0 0,-0.29 0,-0.29l0 -5.12c0,-0.86 -0.29,-1.14 -1.14,-1.14l-36.74 0c-0.85,0 -1.14,0.28 -1.14,0.85l0 4.56c0,2.56 1.14,3.7 3.42,3.7l0 0z"/>
   <path class="fil0" d="M112 54.21l-29.9 0c-0.86,0 -0.86,0.28 -0.86,1.13 -0.28,9.97 -0.28,19.94 -0.28,30.19l0 30.19c0,0.57 0.28,0.85 0.85,0.85l17.09 0c0.57,0 1.14,-0.28 1.14,-0.85 2.56,-5.13 4.55,-10.25 6.54,-15.38 2.57,-7.69 4.56,-15.95 5.7,-24.21 0.86,-7.12 1.14,-14.23 0.86,-21.07 -0.29,-0.57 -0.57,-0.85 -1.14,-0.85l0 0 0 0z"/>
   <path class="fil1" d="M101.74 3.23c-0.28,-0.57 -0.56,-0.85 -1.14,-0.85 0.58,0 0.86,0.28 1.14,0.85z"/>
   <path class="fil2" d="M62.16 2.38l-37.87 0c-0.86,0 -1.71,0.57 -2.28,1.42 -4.27,8.26 -7.4,17.09 -9.97,25.92 -4.27,16.23 -4.84,33.6 -2.27,50.4 1.42,8.55 3.41,16.8 6.54,25.06 1.71,4.56 3.71,8.83 5.7,12.81 0.28,0.86 1.14,1.14 1.99,1.14l4.27 0c0.58,0 0.58,0.57 0.58,0.86l0 2.56c0,0.86 0.56,1.43 1.42,1.43l5.98 0c0.85,0 1.42,-0.57 1.42,-1.43l0 -2.85c0,-0.57 0,-0.85 0.86,-0.85l47.27 0c0.85,0 0.85,0.28 0.85,0.85l0 2.85c0,0.86 0.57,1.43 1.43,1.43l5.98 0c0.85,0 1.42,-0.57 1.42,-1.43l0 -2.56c0,-0.57 0,-0.86 0.86,-0.86l4.26 0c0.86,0 1.72,-0.28 2,-1.14 2.28,-4.27 4.27,-8.54 5.7,-12.81 3.13,-7.97 5.4,-16.51 6.54,-25.06 1.43,-8.54 1.71,-17.09 1.43,-25.91 -0.29,-8.26 -1.71,-16.52 -3.7,-24.49 -2.28,-9.12 -5.7,-17.66 -9.97,-25.92 -0.28,-0.85 -1.14,-1.42 -2.28,-1.42l-38.16 0 0 0zm29.9 117.32l-1.99 0c-0.29,0 -0.57,0.29 -0.57,0.57l0 1.43c0,0.28 0.28,0.57 0.57,0.57l0 0 1.99 0c0.29,0 0.57,-0.29 0.57,-0.57 0,0 0,0 0,0l0 -1.43c0,-0.28 -0.28,-0.57 -0.57,-0.57 0,0 0,0 0,0zm-59.51 0l1.99 0c0.29,0 0.57,0.29 0.57,0.57l0 1.43c0,0.28 -0.28,0.57 -0.57,0.57 0,0 0,0 0,0l-2.28 0c-0.29,0 -0.57,-0.29 -0.57,-0.57l0 0 0 -1.43c0.29,-0.28 0.29,-0.57 0.86,-0.57l0 0z"/>
   <path class="fil3" d="M56.18 37.98c-6.26,2.56 -10.25,8.25 -10.53,14.8l0 62.94c0,0.85 0.28,0.85 0.85,0.85l30.47 0c0.85,0 1.14,-0.28 1.14,-1.14 0,-10.54 0,-21.36 0,-31.89l0 -30.19c0,-1.99 -0.29,-3.99 -1.14,-5.98 -3.13,-8.25 -12.25,-12.53 -20.79,-9.39l0 0 0 0z"/>
   <path class="fil3" d="M45.93 13.77l32.47 0c1.7,0 2.84,-1.14 3.13,-2.56 0,0 0,-0.29 0,-0.29l0 -5.12c0,-0.86 -0.29,-1.14 -1.14,-1.14l-36.74 0c-0.85,0 -1.14,0.28 -1.14,0.85l0 4.56c0,2.56 1.14,3.7 3.42,3.7l0 0z"/>
   <path class="fil4" d="M82.66 51.64l28.77 0c0.85,0 1.71,0.29 1.71,-1.14 -0.29,-3.13 -0.57,-5.69 -1.14,-8.82 -0.86,-5.42 -2,-10.82 -3.7,-16.24 -2,-6.83 -4.84,-13.66 -7.98,-19.93 -0.28,-0.57 -0.57,-0.85 -1.14,-0.85l-14.52 0c-0.86,0 -0.86,0.28 -0.86,0.85l0 5.13c0.29,2.84 -1.99,5.41 -4.84,5.69 -0.28,0 -0.56,0 -0.85,0 -5.41,0.29 -10.82,0 -16.23,0l-16.52 0c-3.13,0 -5.69,-2.56 -5.69,-5.69 0,0 0,0 0,0l0 -5.13c0,-0.85 -0.29,-0.85 -1.14,-0.85l-13.96 0c-0.56,0 -1.14,0.28 -1.14,0.85 -3.7,8.26 -6.83,16.8 -9.11,25.35 -1.71,6.54 -2.56,13.1 -3.42,19.93 0,0.85 0.29,0.85 0.86,0.85l30.19 0c0.85,0 0.85,-0.28 1.13,-1.14 1.14,-8.82 8.26,-15.94 17.09,-16.8 9.97,-0.85 18.79,6.27 20.22,15.95 0.57,1.99 0.57,1.99 2.28,1.99l0 0 0 0 -0.01 0z"/>
   <path class="fil2" d="M62.16 39.97c-7.4,0 -13.1,6.26 -13.1,13.38 0,7.41 6.27,13.1 13.39,13.1 7.12,0 13.1,-5.98 13.1,-13.1 0.28,-7.4 -5.7,-13.38 -13.1,-13.38 0,0 -0.29,0 -0.29,0zm0 24.49c-6.26,0 -11.11,-5.13 -11.11,-11.11 0,-6.26 5.13,-11.11 11.11,-11.11 6.27,0 11.11,5.13 11.11,11.11 0,0 0,0 0,0 -0.29,6.27 -5.13,11.11 -11.11,11.11z"/>
   <path class="fil4" d="M62.16 45.95c-3.98,0 -7.4,3.41 -7.4,7.4 0,4.27 3.42,7.41 7.4,7.41 0,0 0,0 0,0 3.99,0 7.41,-3.42 7.41,-7.41 0.28,-3.99 -3.14,-7.4 -7.41,-7.4 0,0 0,0 0,0zm0 12.81c-2.85,0 -5.41,-2.28 -5.41,-5.41 0,0 0,0 0,-0.28 0,-2.85 2.56,-5.13 5.41,-5.13 2.85,0 5.13,2.28 5.13,5.13 0,0 0,0.28 0,0.28 0.28,3.13 -2.28,5.41 -5.13,5.41l0 0z"/>
   <path class="fil5" d="M43.08 85.25c0,10.25 0,20.5 -0.28,30.47 0,0.85 0,1.14 -1.14,1.14l-16.52 0c-0.57,0 -1.14,0 -1.14,-0.86 -4.55,-9.4 -7.97,-19.36 -10.25,-29.61 -1.99,-9.12 -2.85,-18.52 -2.85,-27.91 0,-1.43 0,-2.85 0,-4.27 0,-0.86 0.57,-0.86 1.14,-0.86l29.62 0c0.85,0 1.14,0.29 1.14,1.14l0 30.76 0.28 0 0 0z"/>
   <path class="fil6" d="M111.43 75.85c-0.86,8.26 -2.85,16.52 -5.41,24.49 -1.71,5.41 -3.99,10.53 -6.27,15.66 -0.28,0.57 -0.57,0.86 -1.14,0.86l-16.51 0c-0.86,0 -0.86,-0.29 -0.86,-0.86l0 -30.75c0,-10.26 0,-20.51 0,-30.76 0,-0.85 0.29,-1.14 1.14,-1.14l29.05 0c0.85,0 0.85,0.29 0.85,0.86 0.29,7.4 0,14.52 -0.85,21.64z"/>
   <path class="fil7" d="M115.7 51.64c-0.57,-6.55 -1.42,-13.1 -3.13,-19.64 -2.28,-9.97 -5.7,-19.66 -10.54,-28.77 -0.29,-0.57 -0.85,-0.85 -1.14,-0.85 0,0 -0.57,0 -0.85,0l-33.89 0 -2.56 0 -3.42 0 -35.88 0c-0.86,0 -1.71,0.57 -2.28,1.42 -4.27,8.26 -7.4,17.09 -9.97,25.92 -1.99,7.97 -3.13,16.23 -3.7,24.49 -0.57,8.54 0,17.37 1.43,25.91 1.42,8.55 3.41,17.09 6.54,25.06 1.71,4.56 3.71,8.83 5.7,12.81 0.28,0.86 1.14,1.14 1.99,1.14l4.27 0c0.58,0 0.58,0.57 0.58,0.86l0 2.56c0.28,1.14 0.28,1.43 1.7,1.43l5.41 0c1.14,0 1.43,-0.57 1.43,-1.43 0,-0.85 0,-1.42 0,-2.28 0,-0.85 0.28,-1.14 1.14,-1.14l46.98 0c1.43,0 1.14,0 1.14,1.43l0 2.28c0,1.14 0.86,1.42 2.28,1.42 1.43,0 3.42,0 5.13,0 1.14,0 1.42,-0.85 1.42,-1.71l0 -2.28c0,-0.85 0.28,-1.14 1.42,-0.85l3.14 0c0.56,0 0.85,0 1.42,-0.29 0.86,-0.57 1.42,-1.14 1.42,-1.99 5.98,-11.96 10.26,-24.77 11.96,-38.16 1.14,-9.11 1.43,-18.22 0.86,-27.34l0 0 0 0zm-73.19 -45.84c0,-0.86 0.29,-0.86 1.14,-0.86l36.74 0c0.85,0 1.14,0.29 1.14,1.14l0 4.84c0,1.71 -1.43,3.14 -3.13,3.14 0,0 -0.29,0 -0.29,0l-31.9 0c-2.28,0 -3.41,-0.86 -3.7,-3.14 0,-1.99 0,-3.7 0,-5.12l0 0 0 0zm-7.4 115.61c0,0.29 -0.28,0.57 -0.86,0.57l-1.99 0c-0.29,0 -0.29,-0.57 -0.29,-0.85 0,-0.29 -0.28,-1.43 0.29,-1.43l1.71 0c0.28,0 0.86,0 0.86,0.29l0.28 1.42zm43.29 -37.87c0,10.53 0,21.35 0,31.89 0,0.86 -0.29,1.14 -1.14,1.14l-30.76 0c-0.57,0 -0.85,0 -0.85,-0.85l0 -62.94c0.28,-6.55 4.27,-12.53 10.53,-14.8 8.26,-3.14 17.66,0.85 20.79,9.39 0.85,1.99 1.14,3.99 1.14,5.98 0.29,9.97 0.29,20.22 0.29,30.19l0 0 0 0zm-18.23 -49.55c-8.83,0.85 -15.95,7.97 -17.09,16.8 0,0.85 -0.28,1.14 -1.14,1.14l-29.9 0c-0.57,0 -1.13,0 -0.85,-0.86 0.57,-6.83 1.71,-13.38 3.42,-19.93 2.28,-8.83 5.12,-17.66 9.39,-25.91 0.29,-0.57 0.57,-0.29 1.43,-0.29l13.1 0c0.85,0 1.42,0 1.42,0.86l0 5.12c0,3.14 2.56,5.7 5.41,5.7 0.29,0 0.29,0 0.57,0l16.52 0c5.69,0 10.53,0.28 15.95,0 2.84,0.28 5.4,-2 5.69,-5.13 0,-0.29 0,-0.57 0,-0.85l0 -5.13c0,-0.57 0,-0.85 0.85,-0.85l14.53 0c0.57,0 1.13,0.28 1.13,0.85 3.14,6.55 5.98,13.1 7.98,19.93 1.71,5.13 2.85,10.54 3.7,15.95 0.57,3.13 0.86,5.98 1.14,9.4 0.29,0.85 -0.57,0.85 -1.42,0.85l-29.05 0c-1.71,0 -2.28,0 -2.56,-1.42 -1.99,-10.82 -9.97,-17.09 -20.22,-16.23l0 0 0 0zm32.46 86.85c0,0.29 0,0.86 -0.28,0.86l-2.28 0c-0.29,0 -0.57,-0.29 -0.57,-0.86 0,-1.71 -0.28,-0.85 0.28,-1.42l2 0c0.28,0 0.57,0 0.57,0.57l0.28 0.85 0 0z"/>
   <path class="fil8" d="M62.16 40.25c-7.4,0 -13.1,5.98 -13.1,13.39 0,7.4 5.98,13.1 13.39,13.1 7.12,0 13.1,-5.98 13.1,-13.1 0,-7.41 -5.7,-13.39 -12.82,-13.39 -0.28,0 -0.28,0 -0.57,0zm0 24.21c-5.98,0 -11.11,-4.84 -11.11,-11.11 0,-6.26 4.85,-11.11 11.11,-11.11 5.98,0 11.11,4.85 11.11,11.11 0,0 0,0 0,0.29 0,5.98 -5.13,10.82 -11.11,10.82 0,0 0,0 0,0z"/>
   <path class="fil9" d="M62.16 39.97c-7.4,0 -13.1,5.98 -13.1,13.38 0,7.41 5.98,13.1 13.39,13.1 7.12,0 13.1,-5.98 13.1,-13.1 0,-7.4 -5.7,-13.38 -12.82,-13.38 -0.28,0 -0.57,0 -0.57,0zm0 24.2c-5.98,0 -11.11,-4.84 -11.11,-11.1 0,-5.98 4.85,-11.11 11.11,-11.11 6.27,0 11.11,4.84 11.11,11.11 0,0 0,0 0,0 0,6.26 -5.13,11.1 -11.11,11.1 0,0 0,0 0,0z"/>
   <path class="fil10" d="M61.88 39.97c-7.41,0 -13.1,5.98 -13.1,13.38 0,7.41 5.98,13.1 13.38,13.1 7.12,0 13.1,-5.98 13.1,-13.1 0,-7.4 -5.69,-13.38 -12.81,-13.38 -0.29,0 -0.29,0 -0.57,0zm0 24.2c-5.98,0 -11.11,-4.84 -11.11,-11.1 0,-5.98 4.84,-11.11 11.11,-11.11 5.98,0 11.1,4.84 11.1,11.11 0,0 0,0 0,0 0,6.26 -5.12,11.1 -11.1,11.1 0,0 0,0 0,0z"/>
   <path class="fil11" d="M70.7 63.32c5.7,-4.84 6.27,-13.1 1.72,-18.8 -4.85,-5.69 -13.11,-6.26 -18.8,-1.7 -5.41,4.55 -6.27,12.81 -1.71,18.51 4.56,5.69 12.82,6.83 18.79,2.27 -0.28,0 0,0 0,-0.28zm-15.66 -18.8c4.84,-3.98 11.68,-3.13 15.66,1.71 3.99,4.84 3.14,11.68 -1.7,15.67 -4.84,3.98 -11.68,3.13 -15.67,-1.71 0,0 0,0 0,0 -3.7,-4.85 -2.84,-11.97 1.71,-15.67z"/>
   <path class="fil12" d="M43.08 85.25c0,10.25 0,20.22 0,30.47 0,0.85 0,1.14 -1.14,1.14l-16.8 0c-0.57,0 -1.14,0 -1.14,-0.86 -4.55,-9.4 -7.97,-19.36 -9.96,-29.33 -2,-9.11 -2.85,-18.51 -2.85,-27.91 0,-1.42 0,-2.84 0,-4.27 0,-0.85 0.57,-0.85 1.14,-0.85l29.61 0c0.86,0 1.14,0.28 1.14,1.14l0 30.47 0 0z"/>
   <path class="fil13" d="M112 75.85c-1.14,8.26 -2.85,16.52 -5.7,24.49 -1.71,5.41 -3.98,10.53 -6.55,15.66 -0.28,0.57 -0.57,0.86 -1.14,0.86l-17.08 0c-0.86,0 -0.86,-0.29 -0.86,-0.86l0 -30.75c0,-10.26 0,-20.51 0,-30.76 0,-0.85 0.29,-1.14 1.14,-1.14l29.9 0c0.86,0 0.86,0.29 0.86,0.86 0.57,7.4 0.28,14.52 -0.57,21.64z"/>
  </g>
 </g>
</svg>
