<svg width="125" height="125" viewBox="0 0 125 125" fill="none" xmlns="http://www.w3.org/2000/svg">
<g clip-path="url(#clip0)">
<path d="M26.998 116.569C26.998 97.6342 27.1151 78.7579 26.8225 59.8235C26.7055 51.6922 24.19 43.8513 21.6744 36.1265C19.8023 30.4346 17.5792 24.8007 15.1807 19.283C14.7126 18.1795 14.7712 17.7729 15.9997 17.3663C24.424 14.8108 32.6727 11.8486 40.863 8.71227C42.0915 8.24762 42.384 8.36379 42.3255 9.75773C42.15 14.5204 42.267 19.283 42.7936 24.2199C45.1336 23.3487 47.4152 22.4775 49.6968 21.6062C51.5688 20.9093 53.4409 20.2704 55.3715 19.6896C55.7225 19.5734 56.0735 19.283 56.5415 19.4573C57.7115 19.98 59.1156 24.1037 58.6476 25.2653C57.5945 27.6467 57.536 30.2022 57.2435 32.7578C56.5415 39.1467 56.834 45.5356 57.8285 51.9245C58.0626 53.2604 58.4136 53.9573 59.9346 53.7831C61.5727 53.6089 63.2692 53.725 64.9073 53.7831C65.8433 53.8412 66.2528 53.5508 66.1943 52.5634C66.1358 44.8386 66.1943 37.1139 66.1943 29.3891C66.1943 28.8083 66.3113 28.2275 65.3753 28.2275C64.3223 28.2275 64.4978 28.9244 64.4978 29.5053C64.4978 36.2426 64.4393 43.0381 64.5563 49.7755C64.5563 51.3437 64.2638 51.9245 62.5087 51.8664C58.8816 51.6341 59.7006 52.4472 59.2326 48.9043C58.2966 41.8184 58.4721 34.7906 59.7591 27.7047C59.9346 26.6593 60.3441 25.7881 61.1632 25.0911C63.1522 23.3487 65.1998 21.6062 67.1889 19.7477C67.8324 19.1668 68.4759 19.4572 69.0609 19.6315C73.039 20.8512 76.9587 22.3032 80.8198 23.8714C81.8143 24.278 82.1068 24.2199 82.2238 23.0002C82.5749 18.528 82.7504 14.0557 82.5748 9.58349C82.5163 8.47995 82.8089 8.30571 83.8034 8.71227C92.1692 11.9648 100.593 14.9269 109.135 17.5406C110.363 17.9471 110.071 18.4699 109.72 19.2249C105.683 28.634 102.114 38.1593 99.8329 48.1493C98.8384 52.4472 98.0194 56.8033 98.0194 61.2755C97.4343 61.566 96.8493 61.7402 96.3228 62.0887C84.5639 68.5357 72.7465 75.0407 60.9877 81.5458C50.2818 87.4701 39.5175 93.3943 28.7531 99.2605C27.5831 99.8994 27.1151 100.654 27.1151 102.048C27.1736 107.276 27.1736 112.503 27.1736 117.73C27.1151 117.73 27.0565 117.73 27.0565 117.73C27.0565 117.324 27.0565 116.917 26.998 116.569ZM83.5109 31.5962C80.4688 31.5962 78.1287 32.177 76.0811 33.7452C72.571 36.3588 72.5125 40.7149 75.8471 43.5028C79.6498 46.6391 86.436 46.5811 90.1801 43.3285C93.1637 40.773 93.2222 36.8815 90.3556 34.2679C88.308 32.3512 85.7925 31.6543 83.5109 31.5962Z" fill="#59595C"/>
<path d="M26.998 116.569C26.998 97.6342 27.1151 78.7579 26.8225 59.8235C26.7055 51.6922 24.19 43.8513 21.6744 36.1265C19.8023 30.4346 17.5792 24.8007 15.1807 19.283C14.7126 18.1795 14.7712 17.7729 15.9997 17.3663C24.424 14.8108 32.6727 11.8486 40.863 8.71227C42.0915 8.24762 42.384 8.36379 42.3255 9.75773C42.15 14.5204 42.267 19.283 42.7936 24.2199C45.1336 23.3487 47.4152 22.4775 49.6968 21.6062C51.5688 20.9093 53.4409 20.2704 55.3715 19.6896C55.7225 19.5734 56.0735 19.283 56.5415 19.4573C57.7115 19.98 59.1156 24.1037 58.6476 25.2653C57.5945 27.6467 57.536 30.2022 57.2435 32.7578C56.5415 39.1467 56.834 45.5356 57.8285 51.9245C58.0626 53.2604 58.4136 53.9573 59.9346 53.7831C61.5727 53.6089 63.2692 53.725 64.9073 53.7831C65.8433 53.8412 66.2528 53.5508 66.1943 52.5634C66.1358 44.8386 66.1943 37.1139 66.1943 29.3891C66.1943 28.8083 66.3113 28.2275 65.3753 28.2275C64.3223 28.2275 64.4978 28.9244 64.4978 29.5053C64.4978 36.2426 64.4393 43.0381 64.5563 49.7755C64.5563 51.3437 64.2638 51.9245 62.5087 51.8664C58.8816 51.6341 59.7006 52.4472 59.2326 48.9043C58.2966 41.8184 58.4721 34.7906 59.7591 27.7047C59.9346 26.6593 60.3441 25.7881 61.1632 25.0911C63.1522 23.3487 65.1998 21.6062 67.1889 19.7477C67.8324 19.1668 68.4759 19.4572 69.0609 19.6315C73.039 20.8512 76.9587 22.3032 80.8198 23.8714C81.8143 24.278 82.1068 24.2199 82.2238 23.0002C82.5749 18.528 82.7504 14.0557 82.5748 9.58349C82.5163 8.47995 82.8089 8.30571 83.8034 8.71227C92.1692 11.9648 100.593 14.9269 109.135 17.5406C110.363 17.9471 110.071 18.4699 109.72 19.2249C105.683 28.634 102.114 38.1593 99.8329 48.1493C98.8384 52.4472 98.0194 56.8033 98.0194 61.2755C97.4343 61.566 96.8493 61.7402 96.3228 62.0887C84.5639 68.5357 72.7465 75.0407 60.9877 81.5458C50.2818 87.4701 39.5175 93.3943 28.7531 99.2605C27.5831 99.8994 27.1151 100.654 27.1151 102.048C27.1736 107.276 27.1736 112.503 27.1736 117.73C27.1151 117.73 27.0565 117.73 27.0565 117.73C27.0565 117.324 27.0565 116.917 26.998 116.569ZM83.5109 31.5962C80.4688 31.5962 78.1287 32.177 76.0811 33.7452C72.571 36.3588 72.5125 40.7149 75.8471 43.5028C79.6498 46.6391 86.436 46.5811 90.1801 43.3285C93.1637 40.773 93.2222 36.8815 90.3556 34.2679C88.308 32.3512 85.7925 31.6543 83.5109 31.5962Z" fill="#3B4047"/>
<path d="M26.998 116.569C26.998 97.6342 27.1151 78.7579 26.8225 59.8235C26.7055 51.6922 24.19 43.8513 21.6744 36.1265C19.8023 30.4346 17.5792 24.8007 15.1807 19.283C14.7126 18.1795 14.7712 17.7729 15.9997 17.3663C24.424 14.8108 32.6727 11.8486 40.863 8.71227C42.0915 8.24762 42.384 8.36379 42.3255 9.75773C42.15 14.5204 42.267 19.283 42.7936 24.2199C45.1336 23.3487 47.4152 22.4775 49.6968 21.6062C51.5688 20.9093 53.4409 20.2704 55.3715 19.6896C55.7225 19.5734 56.0735 19.283 56.5415 19.4573C57.7115 19.98 59.1156 24.1037 58.6476 25.2653C57.5945 27.6467 57.536 30.2022 57.2435 32.7578C56.5415 39.1467 56.834 45.5356 57.8285 51.9245C58.0626 53.2604 58.4136 53.9573 59.9346 53.7831C61.5727 53.6089 63.2692 53.725 64.9073 53.7831C65.8433 53.8412 66.2528 53.5508 66.1943 52.5634C66.1358 44.8386 66.1943 37.1139 66.1943 29.3891C66.1943 28.8083 66.3113 28.2275 65.3753 28.2275C64.3223 28.2275 64.4978 28.9244 64.4978 29.5053C64.4978 36.2426 64.4393 43.0381 64.5563 49.7755C64.5563 51.3437 64.2638 51.9245 62.5087 51.8664C58.8816 51.6341 59.7006 52.4472 59.2326 48.9043C58.2966 41.8184 58.4721 34.7906 59.7591 27.7047C59.9346 26.6593 60.3441 25.7881 61.1632 25.0911C63.1522 23.3487 65.1998 21.6062 67.1889 19.7477C67.8324 19.1668 68.4759 19.4572 69.0609 19.6315C73.039 20.8512 76.9587 22.3032 80.8198 23.8714C81.8143 24.278 82.1068 24.2199 82.2238 23.0002C82.5749 18.528 82.7504 14.0557 82.5748 9.58349C82.5163 8.47995 82.8089 8.30571 83.8034 8.71227C92.1692 11.9648 100.593 14.9269 109.135 17.5406C110.363 17.9471 110.071 18.4699 109.72 19.2249C105.683 28.634 102.114 38.1593 99.8329 48.1493C98.8384 52.4472 98.0194 56.8033 98.0194 61.2755C97.4343 61.566 96.8493 61.7402 96.3228 62.0887C84.5639 68.5357 72.7465 75.0407 60.9877 81.5458C50.2818 87.4701 39.5175 93.3943 28.7531 99.2605C27.5831 99.8994 27.1151 100.654 27.1151 102.048C27.1736 107.276 27.1736 112.503 27.1736 117.73C27.1151 117.73 27.0565 117.73 27.0565 117.73C27.0565 117.324 27.0565 116.917 26.998 116.569ZM83.5109 31.5962C80.4688 31.5962 78.1287 32.177 76.0811 33.7452C72.571 36.3588 72.5125 40.7149 75.8471 43.5028C79.6498 46.6391 86.436 46.5811 90.1801 43.3285C93.1637 40.773 93.2222 36.8815 90.3556 34.2679C88.308 32.3512 85.7925 31.6543 83.5109 31.5962Z" fill="url(#paint0_radial)"/>
<path d="M26.998 116.568C27.0565 116.917 27.115 117.323 27.115 117.672C27.1735 117.672 27.232 117.672 27.232 117.672C27.232 112.445 27.2905 107.217 27.1735 101.99C27.1735 100.596 27.6415 99.8411 28.8115 99.2022C39.5759 93.3361 50.2817 87.4118 61.0461 81.4875C72.805 74.9825 84.6224 68.5355 96.3812 62.0304C96.9078 61.74 97.4928 61.5077 98.0778 61.2173C98.0193 69.2905 97.9608 77.4219 97.9023 85.4951C97.2003 85.379 96.7322 85.8436 96.2057 86.134C75.9641 97.0532 55.6639 107.972 35.4223 118.95C32.6727 120.46 29.8061 121.738 27.232 123.538C26.764 123.538 26.647 123.248 26.647 122.899C26.998 120.808 26.5885 118.659 26.998 116.568Z" fill="#43B8D9"/>
<path d="M26.998 116.568C27.0565 116.917 27.115 117.323 27.115 117.672C27.1735 117.672 27.232 117.672 27.232 117.672C27.232 112.445 27.2905 107.217 27.1735 101.99C27.1735 100.596 27.6415 99.8411 28.8115 99.2022C39.5759 93.3361 50.2817 87.4118 61.0461 81.4875C72.805 74.9825 84.6224 68.5355 96.3812 62.0304C96.9078 61.74 97.4928 61.5077 98.0778 61.2173C98.0193 69.2905 97.9608 77.4219 97.9023 85.4951C97.2003 85.379 96.7322 85.8436 96.2057 86.134C75.9641 97.0532 55.6639 107.972 35.4223 118.95C32.6727 120.46 29.8061 121.738 27.232 123.538C26.764 123.538 26.647 123.248 26.647 122.899C26.998 120.808 26.5885 118.659 26.998 116.568Z" fill="#43B9DA"/>
<path d="M27.2905 123.596C29.8646 121.796 32.7312 120.46 35.4808 119.008C55.7224 108.031 75.9641 97.1115 96.2643 86.1923C96.7908 85.9019 97.3173 85.4373 97.9608 85.5534C97.9608 96.9954 98.0193 108.379 98.0193 119.763C98.0193 120.054 98.0193 120.344 98.0193 120.634C98.0778 123.771 98.0778 123.771 94.9187 123.887C81.9313 124.526 68.8854 125.223 55.8395 124.932C46.3621 124.758 36.8263 124.41 27.2905 123.596Z" fill="#59595C"/>
<path d="M27.2905 123.596C29.8646 121.796 32.7312 120.46 35.4808 119.008C55.7224 108.031 75.9641 97.1115 96.2643 86.1923C96.7908 85.9019 97.3173 85.4373 97.9608 85.5534C97.9608 96.9954 98.0193 108.379 98.0193 119.763C98.0193 120.054 98.0193 120.344 98.0193 120.634C98.0778 123.771 98.0778 123.771 94.9187 123.887C81.9313 124.526 68.8854 125.223 55.8395 124.932C46.3621 124.758 36.8263 124.41 27.2905 123.596Z" fill="#3B4047"/>
<path d="M27.2905 123.596C29.8646 121.796 32.7312 120.46 35.4808 119.008C55.7224 108.031 75.9641 97.1115 96.2643 86.1923C96.7908 85.9019 97.3173 85.4373 97.9608 85.5534C97.9608 96.9954 98.0193 108.379 98.0193 119.763C98.0193 120.054 98.0193 120.344 98.0193 120.634C98.0778 123.771 98.0778 123.771 94.9187 123.887C81.9313 124.526 68.8854 125.223 55.8395 124.932C46.3621 124.758 36.8263 124.41 27.2905 123.596Z" fill="url(#paint1_radial)"/>
<path d="M111.709 19.8635C112.586 22.6514 113.347 25.1489 114.107 27.7045C116.448 35.6615 119.139 43.5606 122.005 51.3434C122.941 53.899 123.877 56.5126 124.872 59.0101C125.106 59.649 125.047 59.8813 124.462 60.346C119.724 63.947 114.4 66.1541 108.433 67.0253C107.263 67.1995 106.093 67.2576 104.864 67.3738C103.753 67.4318 103.343 67.0253 102.992 65.9798C102.349 63.6566 101.413 61.4495 100.711 59.1263C99.95 56.6869 100.711 54.2475 101.179 51.8661C103.285 41.4116 106.795 31.3636 110.831 21.4898C111.065 21.0251 111.358 20.6186 111.709 19.8635Z" fill="#43B8D9"/>
<path d="M111.709 19.8635C112.586 22.6514 113.347 25.1489 114.107 27.7045C116.448 35.6615 119.139 43.5606 122.005 51.3434C122.941 53.899 123.877 56.5126 124.872 59.0101C125.106 59.649 125.047 59.8813 124.462 60.346C119.724 63.947 114.4 66.1541 108.433 67.0253C107.263 67.1995 106.093 67.2576 104.864 67.3738C103.753 67.4318 103.343 67.0253 102.992 65.9798C102.349 63.6566 101.413 61.4495 100.711 59.1263C99.95 56.6869 100.711 54.2475 101.179 51.8661C103.285 41.4116 106.795 31.3636 110.831 21.4898C111.065 21.0251 111.358 20.6186 111.709 19.8635Z" fill="#43B9DA"/>
<path d="M13.4841 20.1543C16.1167 26.3109 18.5153 32.4094 20.4459 38.7402C21.7329 42.9801 22.7275 47.3362 23.6635 51.6923C24.4825 55.5837 24.8335 59.2428 22.903 62.9019C22.6104 63.4827 22.4934 64.1797 22.2594 64.8186C21.3234 67.5484 21.3234 67.6645 18.3983 67.3741C12.0216 66.7352 6.17141 64.5282 0.906241 60.8691C-0.263797 60.0559 -0.0882917 59.3589 0.26272 58.3716C3.65583 50.066 6.46392 41.5862 9.21351 33.1064C10.5006 29.0988 11.6706 24.975 12.8991 20.9093C12.9576 20.677 13.0746 20.3866 13.4841 20.1543Z" fill="#43B8D9"/>
<path d="M13.4841 20.1543C16.1167 26.3109 18.5153 32.4094 20.4459 38.7402C21.7329 42.9801 22.7275 47.3362 23.6635 51.6923C24.4825 55.5837 24.8335 59.2428 22.903 62.9019C22.6104 63.4827 22.4934 64.1797 22.2594 64.8186C21.3234 67.5484 21.3234 67.6645 18.3983 67.3741C12.0216 66.7352 6.17141 64.5282 0.906241 60.8691C-0.263797 60.0559 -0.0882917 59.3589 0.26272 58.3716C3.65583 50.066 6.46392 41.5862 9.21351 33.1064C10.5006 29.0988 11.6706 24.975 12.8991 20.9093C12.9576 20.677 13.0746 20.3866 13.4841 20.1543Z" fill="#43B9DA"/>
<path d="M60.7536 22.7677C58.238 17.7147 54.0843 13.5329 52.2708 8.07325C51.6273 6.0985 51.0422 4.06567 50.4572 2.03283C50.0477 0.638891 50.3987 0.0580809 51.9198 0.0580809C58.0625 0.0580809 64.2637 0 70.4064 0C70.6404 0 70.8744 0.0580809 71.1084 0.0580809C75.0865 0.174243 75.0865 0.174243 74.092 4.18183C72.1029 11.8485 68.0663 17.4243 60.7536 22.7677Z" fill="#59595C"/>
<path d="M60.7536 22.7677C58.238 17.7147 54.0843 13.5329 52.2708 8.07325C51.6273 6.0985 51.0422 4.06567 50.4572 2.03283C50.0477 0.638891 50.3987 0.0580809 51.9198 0.0580809C58.0625 0.0580809 64.2637 0 70.4064 0C70.6404 0 70.8744 0.0580809 71.1084 0.0580809C75.0865 0.174243 75.0865 0.174243 74.092 4.18183C72.1029 11.8485 68.0663 17.4243 60.7536 22.7677Z" fill="#3B4047"/>
<path d="M60.7536 22.7677C58.238 17.7147 54.0843 13.5329 52.2708 8.07325C51.6273 6.0985 51.0422 4.06567 50.4572 2.03283C50.0477 0.638891 50.3987 0.0580809 51.9198 0.0580809C58.0625 0.0580809 64.2637 0 70.4064 0C70.6404 0 70.8744 0.0580809 71.1084 0.0580809C75.0865 0.174243 75.0865 0.174243 74.092 4.18183C72.1029 11.8485 68.0663 17.4243 60.7536 22.7677Z" fill="url(#paint2_radial)"/>
<path d="M76.3152 0.522705C77.4853 2.03281 78.5383 3.31059 79.5328 4.64645C80.6444 6.09848 81.2879 7.60858 81.2294 9.58334C81.0539 13.3586 81.1709 17.1919 81.1709 20.9672C81.1709 22.0127 81.1124 22.5354 79.7668 21.9546C76.6077 20.6768 73.3901 19.5733 70.114 18.5278C68.827 18.1212 68.1835 17.947 69.3535 16.495C73.0391 12.0227 75.0282 6.79545 76.0227 1.1616C76.0812 0.987353 76.1982 0.871191 76.3152 0.522705Z" fill="#43B8D9"/>
<path d="M76.3152 0.522705C77.4853 2.03281 78.5383 3.31059 79.5328 4.64645C80.6444 6.09848 81.2879 7.60858 81.2294 9.58334C81.0539 13.3586 81.1709 17.1919 81.1709 20.9672C81.1709 22.0127 81.1124 22.5354 79.7668 21.9546C76.6077 20.6768 73.3901 19.5733 70.114 18.5278C68.827 18.1212 68.1835 17.947 69.3535 16.495C73.0391 12.0227 75.0282 6.79545 76.0227 1.1616C76.0812 0.987353 76.1982 0.871191 76.3152 0.522705Z" fill="#43B9DA"/>
<path d="M48.7607 0.290283C49.9308 6.62111 51.9784 12.0807 55.547 16.9014C56.132 17.7146 56.1905 18.0631 54.9619 18.4696C51.6273 19.5732 48.2927 20.8509 45.0166 22.0706C44.0806 22.4191 43.7881 22.1868 43.7881 21.2575C43.7881 16.7272 43.7881 12.1969 43.7881 7.60849C43.7881 7.26 43.8466 6.96959 44.0806 6.67919C45.5431 4.64636 47.0057 2.6716 48.7607 0.290283Z" fill="#43B8D9"/>
<path d="M48.7607 0.290283C49.9308 6.62111 51.9784 12.0807 55.547 16.9014C56.132 17.7146 56.1905 18.0631 54.9619 18.4696C51.6273 19.5732 48.2927 20.8509 45.0166 22.0706C44.0806 22.4191 43.7881 22.1868 43.7881 21.2575C43.7881 16.7272 43.7881 12.1969 43.7881 7.60849C43.7881 7.26 43.8466 6.96959 44.0806 6.67919C45.5431 4.64636 47.0057 2.6716 48.7607 0.290283Z" fill="#43B9DA"/>
<path d="M83.511 31.5962C85.7926 31.6543 88.3082 32.2932 90.4142 34.2679C93.2808 36.9396 93.1638 40.8311 90.2387 43.3285C86.4946 46.523 79.7084 46.5811 75.9058 43.5028C72.5712 40.7149 72.6297 36.4169 76.1398 33.7452C78.1288 32.177 80.4689 31.5962 83.511 31.5962ZM83.2185 44.374C85.5001 44.3159 87.8402 43.7351 89.6537 41.8765C91.5843 39.9018 91.5843 37.2881 89.6537 35.3715C86.3191 32.0608 79.4159 32.1189 76.2568 35.4876C74.3262 37.5204 74.3847 40.0179 76.4323 41.9346C78.1873 43.7932 80.4689 44.374 83.2185 44.374Z" fill="#FEFEFE"/>
<path d="M83.2184 44.374C80.4688 44.374 78.1872 43.7351 76.3737 41.9927C74.3846 40.076 74.3261 37.5204 76.1982 35.5457C79.3573 32.177 86.319 32.1189 89.5951 35.4295C91.5257 37.3462 91.5257 39.9598 89.5951 41.9346C87.7815 43.7932 85.5 44.374 83.2184 44.374Z" fill="#43B8D9"/>
<path d="M83.2184 44.374C80.4688 44.374 78.1872 43.7351 76.3737 41.9927C74.3846 40.076 74.3261 37.5204 76.1982 35.5457C79.3573 32.177 86.319 32.1189 89.5951 35.4295C91.5257 37.3462 91.5257 39.9598 89.5951 41.9346C87.7815 43.7932 85.5 44.374 83.2184 44.374Z" fill="#43B9DA"/>
<path fill-rule="evenodd" clip-rule="evenodd" d="M86.58 40.41L86.51 40.17C86.111 38.6804 86.0733 37.1171 86.4 35.61C86.4285 35.4713 86.4653 35.3344 86.51 35.2L86.58 35H80L80.07 35.2C80.1147 35.3344 80.1515 35.4713 80.18 35.61C80.261 35.9624 80.3178 36.3199 80.35 36.68C80.4676 37.8507 80.3727 39.033 80.07 40.17L80 40.41L80.24 40.5L80.52 40.61C80.7576 40.7072 80.9882 40.8208 81.21 40.95C81.8982 41.3075 82.5314 41.7621 83.09 42.3L83.28 42.52L83.48 42.3C84.0386 41.7621 84.6718 41.3075 85.36 40.95C85.5839 40.8247 85.8142 40.7112 86.05 40.61L86.33 40.5L86.57 40.41H86.58ZM83.23 39.35L82.79 38.91C82.7668 38.8858 82.7538 38.8535 82.7538 38.82C82.7538 38.7865 82.7668 38.7542 82.79 38.73L83.23 38.29C83.256 38.2705 83.2875 38.26 83.32 38.26C83.3525 38.26 83.384 38.2705 83.41 38.29L83.84 38.73C83.8632 38.7542 83.8762 38.7865 83.8762 38.82C83.8762 38.8535 83.8632 38.8858 83.84 38.91L83.41 39.35C83.384 39.3695 83.3525 39.38 83.32 39.38C83.2875 39.38 83.256 39.3695 83.23 39.35V39.35ZM83.23 40.76L82.79 40.32C82.7774 40.3097 82.7673 40.2967 82.7604 40.282C82.7534 40.2673 82.7498 40.2513 82.7498 40.235C82.7498 40.2187 82.7534 40.2027 82.7604 40.188C82.7673 40.1733 82.7774 40.1603 82.79 40.15L83.23 39.71C83.2542 39.6868 83.2865 39.6738 83.32 39.6738C83.3535 39.6738 83.3858 39.6868 83.41 39.71L83.84 40.15C83.8526 40.1603 83.8627 40.1733 83.8696 40.188C83.8766 40.2027 83.8802 40.2187 83.8802 40.235C83.8802 40.2513 83.8766 40.2673 83.8696 40.282C83.8627 40.2967 83.8526 40.3097 83.84 40.32L83.41 40.76C83.3858 40.7832 83.3535 40.7962 83.32 40.7962C83.2865 40.7962 83.2542 40.7832 83.23 40.76V40.76ZM82.69 40.07C82.6797 40.0826 82.6667 40.0927 82.652 40.0996C82.6373 40.1066 82.6213 40.1102 82.605 40.1102C82.5887 40.1102 82.5727 40.1066 82.558 40.0996C82.5433 40.0927 82.5303 40.0826 82.52 40.07L82.08 39.63C82.0568 39.6058 82.0438 39.5735 82.0438 39.54C82.0438 39.5065 82.0568 39.4742 82.08 39.45L82.52 39.02C82.5303 39.0074 82.5433 38.9973 82.558 38.9904C82.5727 38.9834 82.5887 38.9798 82.605 38.9798C82.6213 38.9798 82.6373 38.9834 82.652 38.9904C82.6667 38.9973 82.6797 39.0074 82.69 39.02L83.13 39.45C83.1532 39.4742 83.1662 39.5065 83.1662 39.54C83.1662 39.5735 83.1532 39.6058 83.13 39.63L82.69 40.07ZM83.95 40.07L83.51 39.63C83.4868 39.6058 83.4738 39.5735 83.4738 39.54C83.4738 39.5065 83.4868 39.4742 83.51 39.45L83.95 39.02C83.9603 39.0074 83.9733 38.9973 83.988 38.9904C84.0027 38.9834 84.0187 38.9798 84.035 38.9798C84.0513 38.9798 84.0673 38.9834 84.082 38.9904C84.0967 38.9973 84.1097 39.0074 84.12 39.02L84.56 39.45C84.5832 39.4742 84.5962 39.5065 84.5962 39.54C84.5962 39.5735 84.5832 39.6058 84.56 39.63L84.12 40.07C84.1097 40.0826 84.0967 40.0927 84.082 40.0996C84.0673 40.1066 84.0513 40.1102 84.035 40.1102C84.0187 40.1102 84.0027 40.1066 83.988 40.0996C83.9733 40.0927 83.9603 40.0826 83.95 40.07ZM81.23 36.87V35.82H81.49V36.67H82.31V36.87H81.23ZM85.06 36H84.33V36.23H85.02C85.13 36.23 85.2 36.23 85.24 36.23C85.2638 36.257 85.2815 36.2889 85.2919 36.3234C85.3022 36.358 85.305 36.3943 85.3 36.43V36.57C85.3038 36.6057 85.3004 36.6417 85.2901 36.676C85.2798 36.7104 85.2628 36.7423 85.24 36.77C85.1737 36.8092 85.0968 36.8266 85.02 36.82H84.34C84.2632 36.8281 84.1858 36.8105 84.12 36.77C84.0972 36.7423 84.0802 36.7104 84.0699 36.676C84.0596 36.6417 84.0562 36.6057 84.06 36.57V36.57H84.29V36.69H85.06V36.45H84.38C84.3084 36.4723 84.2316 36.4723 84.16 36.45C84.1372 36.4223 84.1202 36.3904 84.1099 36.356C84.0996 36.3217 84.0962 36.2857 84.1 36.25V36.06C84.0958 36.0259 84.099 35.9913 84.1094 35.9585C84.1197 35.9257 84.137 35.8955 84.16 35.87C84.16 35.87 84.27 35.82 84.38 35.82H85.01C85.0838 35.81 85.1586 35.8279 85.22 35.87C85.2428 35.8936 85.26 35.9221 85.2704 35.9532C85.2808 35.9843 85.2841 36.0174 85.28 36.05L85.06 36.1V35.98V36ZM82.54 36.87V35.82H82.71L83.61 36.52V35.82H83.84V36.87H83.66L82.77 36.16V36.87H82.54ZM85.62 37.66C85.6462 38.473 85.7398 39.2825 85.9 40.08C84.9324 40.4843 84.0399 41.0489 83.26 41.75C82.4801 41.0489 81.5876 40.4843 80.62 40.08C80.7851 39.2833 80.8788 38.4734 80.9 37.66H85.62ZM80.9 37.18C80.9062 36.6347 80.8457 36.0907 80.72 35.56H85.86C85.7301 36.1041 85.6597 36.6607 85.65 37.22L80.9 37.18Z" fill="white"/>
</g>
<defs>
<radialGradient id="paint0_radial" cx="0" cy="0" r="1" gradientUnits="userSpaceOnUse" gradientTransform="translate(80.8565 108.246) rotate(90) scale(108.989 94.876)">
<stop stop-color="#488BAA" stop-opacity="0.5"/>
<stop offset="1" stop-color="#88B1B7" stop-opacity="0.01"/>
</radialGradient>
<radialGradient id="paint1_radial" cx="0" cy="0" r="1" gradientUnits="userSpaceOnUse" gradientTransform="translate(76.3385 121.574) rotate(90) scale(39.3659 70.5643)">
<stop stop-color="#488BAA" stop-opacity="0.5"/>
<stop offset="1" stop-color="#88B1B7" stop-opacity="0.01"/>
</radialGradient>
<radialGradient id="paint2_radial" cx="0" cy="0" r="1" gradientUnits="userSpaceOnUse" gradientTransform="translate(67.1786 20.7914) rotate(90) scale(22.7106 24.2843)">
<stop stop-color="#488BAA" stop-opacity="0.5"/>
<stop offset="1" stop-color="#88B1B7" stop-opacity="0.01"/>
</radialGradient>
<clipPath id="clip0">
<rect width="125" height="125" fill="white"/>
</clipPath>
</defs>
</svg>
