<?xml version="1.0" encoding="UTF-8"?>
<!DOCTYPE svg PUBLIC "-//W3C//DTD SVG 1.1//EN" "http://www.w3.org/Graphics/SVG/1.1/DTD/svg11.dtd">
<!-- Creator: CorelDRAW -->
<svg xmlns="http://www.w3.org/2000/svg" xml:space="preserve" width="125px" height="125px" version="1.1" style="shape-rendering:geometricPrecision; text-rendering:geometricPrecision; image-rendering:optimizeQuality; fill-rule:evenodd; clip-rule:evenodd"
viewBox="0 0 125 125"
 xmlns:xlink="http://www.w3.org/1999/xlink"
 xmlns:xodm="http://www.corel.com/coreldraw/odm/2003">
 <defs>
  <style type="text/css">
   <![CDATA[
    .fil3 {fill:none}
    .fil0 {fill:#3B4047}
    .fil2 {fill:#43B9DA}
    .fil1 {fill:url(#id1)}
   ]]>
  </style>
   <clipPath id="id0">
    <path d="M10.27 124.25l106.21 0 0 -123.59 -106.21 0 0 123.59z"/>
   </clipPath>
  <radialGradient id="id1" gradientUnits="userSpaceOnUse" gradientTransform="matrix(4.69113E-014 1.72781 -1.92874E+000 5.06536E-014 295 -30)" cx="81.43" cy="110.67" r="5.98" fx="81.43" fy="110.67">
   <stop offset="0" style="stop-opacity:0.501961; stop-color:#488BAA"/>
   <stop offset="1" style="stop-opacity:0.0117647; stop-color:#88B1B7"/>
  </radialGradient>
 </defs>
 <g id="Layer_x0020_1">
  <metadata id="CorelCorpID_0Corel-Layer"/>
  <g>
  </g>
  <g style="clip-path:url(#id0)">
   <g>
    <path class="fil0" d="M50.94 37.79c-21.08,5.94 -35,26.84 -30.16,49.05 4.13,19.33 22.24,33.4 42.45,33.18 20.9,-0.23 38.6,-14.64 42.27,-34.48 4.08,-22.26 -10.36,-42.61 -31.27,-48.03 0.29,-0.23 0.47,-0.45 0.7,-0.68 4.13,-3.05 8.21,-6.05 12.34,-9.15 0.59,-0.46 1.05,-0.57 1.75,-0.17 14.73,8.25 23.99,20.4 26.73,36.73 3.96,23.73 -8.5,45.83 -30.98,55.66 -21.6,9.44 -48.21,3.11 -62.89,-15.03 -7.86,-9.78 -11.99,-20.8 -11.58,-33.17 0.58,-18.2 8.96,-32.33 24.45,-42.5 1.11,-0.73 1.87,-0.73 2.97,0 3.9,2.6 7.92,5.09 11.88,7.63 0.47,0.34 0.82,0.62 1.34,0.96z"/>
    <path class="fil1" d="M50.94 37.79c-21.08,5.94 -35,26.84 -30.16,49.05 4.13,19.33 22.24,33.4 42.45,33.18 20.9,-0.23 38.6,-14.64 42.27,-34.48 4.08,-22.26 -10.36,-42.61 -31.27,-48.03 0.29,-0.23 0.47,-0.45 0.7,-0.68 4.13,-3.05 8.21,-6.05 12.34,-9.15 0.59,-0.46 1.05,-0.57 1.75,-0.17 14.73,8.25 23.99,20.4 26.73,36.73 3.96,23.73 -8.5,45.83 -30.98,55.66 -21.6,9.44 -48.21,3.11 -62.89,-15.03 -7.86,-9.78 -11.99,-20.8 -11.58,-33.17 0.58,-18.2 8.96,-32.33 24.45,-42.5 1.11,-0.73 1.87,-0.73 2.97,0 3.9,2.6 7.92,5.09 11.88,7.63 0.47,0.34 0.82,0.62 1.34,0.96z"/>
    <path class="fil2" d="M83.61 13.94c2.79,0 5.59,-0.05 8.38,0.06 0.64,0 1.22,0.4 1.86,0.62 -0.34,0.45 -0.64,1.02 -1.1,1.36 -8.27,6.38 -16.54,12.83 -24.87,19.21 -0.4,0.34 -0.87,0.68 -1.33,0.79 -0.47,0.12 -1.11,0 -1.46,-0.28 -0.23,-0.17 -0.18,-0.9 0,-1.24 1.92,-4.58 3.9,-9.1 5.88,-13.62 0.87,-1.98 1.75,-3.96 2.56,-5.94 0.29,-0.67 0.64,-0.9 1.4,-0.9 2.8,-0.06 5.71,-0.06 8.68,-0.06z"/>
    <path class="fil2" d="M40.28 13.94c2.74,0 5.48,0.06 8.27,0 0.88,0 1.34,0.23 1.69,1.02 2.85,6.39 5.77,12.77 8.62,19.21 0.17,0.4 0.11,0.97 0.11,1.42 -0.64,0.05 -1.33,0.11 -1.97,0.11 -0.3,0 -0.53,-0.34 -0.82,-0.56 -8.39,-6.5 -16.71,-12.89 -25.04,-19.39 -0.35,-0.28 -0.58,-0.79 -0.87,-1.19 0.52,-0.22 0.99,-0.62 1.51,-0.62 2.8,-0.05 5.65,0 8.5,0z"/>
    <path class="fil2" d="M72.25 14c-0.06,0.23 -0.06,0.4 -0.11,0.51 -2.86,6.67 -5.77,13.34 -8.62,20 -0.29,0.68 -0.76,1.25 -1.57,1.08 -0.53,-0.12 -1.23,-0.45 -1.46,-0.91 -3.09,-6.72 -6.17,-13.5 -9.2,-20.28 -0.06,-0.12 0,-0.23 -0.06,-0.46 7.05,0.06 14.03,0.06 21.02,0.06z"/>
    <path class="fil2" d="M62 0.83c3.26,3.45 6.47,6.78 9.61,10.12 0.7,0.73 0.53,1.18 -0.46,1.35 -0.35,0.06 -0.76,0.06 -1.11,0.06 -5.47,0 -10.95,0 -16.36,0 -0.18,0 -0.35,0.06 -0.53,0 -0.46,-0.11 -0.93,-0.28 -1.34,-0.45 0.18,-0.4 0.29,-0.91 0.59,-1.19 3.14,-3.28 6.34,-6.5 9.6,-9.89z"/>
    <path class="fil2" d="M84.89 1.12c1.05,1.07 1.98,2.09 2.91,3.1 2.04,2.21 4.08,4.35 6.11,6.56 0.29,0.28 0.35,0.73 0.53,1.13 -0.35,0.17 -0.76,0.45 -1.11,0.45 -5.53,0 -11.06,0.06 -16.65,0 -1.11,0 -1.52,-0.56 -0.93,-1.19 3.02,-3.33 6.05,-6.61 9.14,-10.05z"/>
    <path class="fil2" d="M39.18 1.12c1.28,1.52 2.5,2.99 3.78,4.4 1.52,1.81 3.09,3.62 4.6,5.43 0.64,0.79 0.47,1.19 -0.52,1.35 -0.35,0.06 -0.64,0.06 -0.99,0.06 -4.72,0 -9.49,0 -14.21,0 -0.41,0 -0.81,0 -1.22,-0.06 -1.05,-0.16 -1.28,-0.62 -0.58,-1.35 2.96,-3.22 5.99,-6.44 9.14,-9.83z"/>
    <path class="fil2" d="M49.77 11.8c-2.85,-3.34 -5.53,-6.56 -8.21,-9.72 -0.64,-0.8 -0.29,-1.19 0.53,-1.36 0.29,-0.06 0.64,-0.06 0.99,-0.06 4.89,0 9.72,0 14.61,0 0.41,0 0.82,0.06 1.23,0.12 0.75,0.17 0.99,0.56 0.4,1.18 -3.14,3.28 -6.28,6.5 -9.55,9.84z"/>
    <path class="fil2" d="M73.82 11.57c-3.08,-3.28 -6.11,-6.39 -9.02,-9.49 -0.64,-0.68 -0.47,-1.13 0.46,-1.36 0.3,-0.06 0.64,-0.06 0.99,-0.06 4.6,0 9.26,0 13.86,0 0.35,0 0.76,0 1.11,0.12 0.76,0.17 0.99,0.56 0.46,1.24 -2.62,3.16 -5.18,6.27 -7.86,9.55z"/>
   </g>
  </g>
  <polygon class="fil3" points="10.27,124.25 116.48,124.25 116.48,0.66 10.27,0.66 "/>
 </g>
</svg>
