<svg width="125" height="125" viewBox="0 0 125 125" fill="none" xmlns="http://www.w3.org/2000/svg">
<g clip-path="url(#clip0)">
<path d="M12.6563 82.0344H9.72445C9.62668 93.2735 7.76978 97.6715 7.76978 97.6715L18.5204 99.6262C18.5204 99.6262 12.6563 92.2961 12.6563 82.0344ZM12.6563 57.6011H9.72445V80.0797H12.6563V57.6011ZM12.6563 82.0344H9.72445C9.62668 93.2735 7.76978 97.6715 7.76978 97.6715L18.5204 99.6262C18.5204 99.6262 12.6563 92.2961 12.6563 82.0344ZM12.6563 57.6011H9.72445V80.0797H12.6563V57.6011Z" fill="#2B414D"/>
<path d="M12.6563 82.0344H9.72445C9.62668 93.2735 7.76978 97.6715 7.76978 97.6715L18.5204 99.6262C18.5204 99.6262 12.6563 92.2961 12.6563 82.0344ZM12.6563 57.6011H9.72445V80.0797H12.6563V57.6011ZM12.6563 82.0344H9.72445C9.62668 93.2735 7.76978 97.6715 7.76978 97.6715L18.5204 99.6262C18.5204 99.6262 12.6563 92.2961 12.6563 82.0344ZM12.6563 57.6011H9.72445V80.0797H12.6563V57.6011Z" fill="#43B9DA"/>
<path d="M11.1903 77.1476C14.1222 77.1476 16.5657 79.5909 16.5657 82.523C16.5657 85.4549 14.1224 87.8984 11.1903 87.8984C8.25816 87.8984 5.81488 85.5529 5.81488 82.523C5.81513 79.5909 8.25841 77.1476 11.1903 77.1476Z" fill="#475F6C"/>
<path d="M11.1903 77.1476C14.1222 77.1476 16.5657 79.5909 16.5657 82.523C16.5657 85.4549 14.1224 87.8984 11.1903 87.8984C8.25816 87.8984 5.81488 85.5529 5.81488 82.523C5.81513 79.5909 8.25841 77.1476 11.1903 77.1476Z" fill="#43B9DA"/>
<path d="M11.1903 77.1476C14.1222 77.1476 16.5657 79.5909 16.5657 82.523C16.5657 85.4549 14.1224 87.8984 11.1903 87.8984C8.25816 87.8984 5.81488 85.5529 5.81488 82.523C5.81513 79.5909 8.25841 77.1476 11.1903 77.1476Z" fill="#3B4047"/>
<path d="M11.1903 77.1476C14.1222 77.1476 16.5657 79.5909 16.5657 82.523C16.5657 85.4549 14.1224 87.8984 11.1903 87.8984C8.25816 87.8984 5.81488 85.5529 5.81488 82.523C5.81513 79.5909 8.25841 77.1476 11.1903 77.1476Z" fill="url(#paint0_radial)"/>
<path d="M1.31941 53.4966L59.2749 26.0337C61.0341 25.154 63.9662 25.154 65.7253 26.0337L123.681 53.4966C125.44 54.3763 125.44 55.9399 123.681 56.8196L65.7253 84.2823C63.9662 85.1619 61.0341 85.1619 59.2749 84.2823L1.31941 56.8193C-0.439722 55.9399 -0.439722 54.376 1.31941 53.4966ZM62.5001 68.1563C80.8738 68.1563 95.7293 74.8022 95.7293 82.914C95.7293 91.0257 80.8738 97.6716 62.5001 97.6716C44.1264 97.6716 29.2709 91.0257 29.2709 82.914C29.2709 74.8022 44.1264 68.1563 62.5001 68.1563Z" fill="#2B414D"/>
<path d="M1.31941 53.4966L59.2749 26.0337C61.0341 25.154 63.9662 25.154 65.7253 26.0337L123.681 53.4966C125.44 54.3763 125.44 55.9399 123.681 56.8196L65.7253 84.2823C63.9662 85.1619 61.0341 85.1619 59.2749 84.2823L1.31941 56.8193C-0.439722 55.9399 -0.439722 54.376 1.31941 53.4966ZM62.5001 68.1563C80.8738 68.1563 95.7293 74.8022 95.7293 82.914C95.7293 91.0257 80.8738 97.6716 62.5001 97.6716C44.1264 97.6716 29.2709 91.0257 29.2709 82.914C29.2709 74.8022 44.1264 68.1563 62.5001 68.1563Z" fill="#3B4047"/>
<path d="M1.31941 53.4966L59.2749 26.0337C61.0341 25.154 63.9662 25.154 65.7253 26.0337L123.681 53.4966C125.44 54.3763 125.44 55.9399 123.681 56.8196L65.7253 84.2823C63.9662 85.1619 61.0341 85.1619 59.2749 84.2823L1.31941 56.8193C-0.439722 55.9399 -0.439722 54.376 1.31941 53.4966ZM62.5001 68.1563C80.8738 68.1563 95.7293 74.8022 95.7293 82.914C95.7293 91.0257 80.8738 97.6716 62.5001 97.6716C44.1264 97.6716 29.2709 91.0257 29.2709 82.914C29.2709 74.8022 44.1264 68.1563 62.5001 68.1563Z" fill="url(#paint1_radial)"/>
<path d="M92.7972 60.4355C92.7972 53.4965 79.31 47.828 62.5979 47.828C45.9833 47.828 32.4962 53.3987 32.3986 60.3377C32.3986 60.3377 29.1735 83.0116 29.2712 83.0116C29.2712 76.3657 43.247 68.2539 62.5982 68.2539C80.5811 68.2539 93.9704 76.659 95.7296 82.9138C95.7291 82.9138 92.7972 60.4355 92.7972 60.4355Z" fill="#455E6B"/>
<path d="M92.7972 60.4355C92.7972 53.4965 79.31 47.828 62.5979 47.828C45.9833 47.828 32.4962 53.3987 32.3986 60.3377C32.3986 60.3377 29.1735 83.0116 29.2712 83.0116C29.2712 76.3657 43.247 68.2539 62.5982 68.2539C80.5811 68.2539 93.9704 76.659 95.7296 82.9138C95.7291 82.9138 92.7972 60.4355 92.7972 60.4355Z" fill="#3B4047"/>
<path d="M92.7972 60.4355C92.7972 53.4965 79.31 47.828 62.5979 47.828C45.9833 47.828 32.4962 53.3987 32.3986 60.3377C32.3986 60.3377 29.1735 83.0116 29.2712 83.0116C29.2712 76.3657 43.247 68.2539 62.5982 68.2539C80.5811 68.2539 93.9704 76.659 95.7296 82.9138C95.7291 82.9138 92.7972 60.4355 92.7972 60.4355Z" fill="url(#paint2_radial)"/>
<path d="M64.4548 47.8278V68.3517C81.4602 68.9381 93.9702 76.9521 95.7293 83.0116L92.7974 60.4355C92.7972 53.6918 80.2874 48.3166 64.4548 47.8278Z" fill="#4B6370"/>
</g>
<defs>
<radialGradient id="paint0_radial" cx="0" cy="0" r="1" gradientUnits="userSpaceOnUse" gradientTransform="translate(13.2688 86.9652) rotate(90) scale(10.7238)">
<stop stop-color="#488BAA" stop-opacity="0.5"/>
<stop offset="1" stop-color="#88B1B7" stop-opacity="0.01"/>
</radialGradient>
<radialGradient id="paint1_radial" cx="0" cy="0" r="1" gradientUnits="userSpaceOnUse" gradientTransform="translate(86.6672 91.3958) rotate(90) scale(72.1162 124.686)">
<stop stop-color="#488BAA" stop-opacity="0.5"/>
<stop offset="1" stop-color="#88B1B7" stop-opacity="0.01"/>
</radialGradient>
<radialGradient id="paint2_radial" cx="0" cy="0" r="1" gradientUnits="userSpaceOnUse" gradientTransform="translate(75.3485 79.9575) rotate(90) scale(35.0952 66.2936)">
<stop stop-color="#488BAA" stop-opacity="0.5"/>
<stop offset="1" stop-color="#88B1B7" stop-opacity="0.01"/>
</radialGradient>
<clipPath id="clip0">
<rect width="125" height="125" fill="white"/>
</clipPath>
</defs>
</svg>
