<svg width="135" height="105" viewBox="0 0 135 105" fill="none" xmlns="http://www.w3.org/2000/svg">
<g clip-path="url(#clip0)">
<path d="M69.4427 92.3842C66.6303 95.4768 63.624 98.4221 61.0056 101.76C59.1145 104.165 57.0779 104.951 54.0231 104.558C45.1981 103.478 36.6639 101.564 28.4693 98.2257C28.3723 98.1767 28.2268 98.0785 27.9844 97.9312C32.0575 94.1023 36.0821 90.2734 40.2522 86.3464C36.47 80.7503 32.6878 75.2524 28.7117 69.4109C29.4875 69.7054 29.9724 69.8527 30.4088 69.9999C38.0701 73.0434 45.9739 75.056 54.1686 76.136C54.7504 76.1851 55.4293 76.4305 55.8172 76.8232C60.3752 81.8793 64.8362 86.9845 69.3457 92.0406C69.3457 92.1388 69.3457 92.237 69.4427 92.3842Z" fill="#43B9DA"/>
<path d="M105.034 84.236C100.815 90.1757 96.6449 96.0172 92.4749 101.81C92.2324 102.153 91.796 102.448 91.4081 102.497C84.4257 104.019 77.3462 104.853 70.1698 105C70.0728 105 69.9274 104.951 69.6364 104.902C73.2246 100.681 76.7159 96.5081 80.2556 92.3356C75.7461 87.3286 71.2851 82.3707 66.6786 77.2655C68.1818 77.1673 69.4425 77.0691 70.7517 76.971C78.7039 76.4801 86.4622 75.1056 94.172 73.093C94.6569 72.9457 95.5297 72.9948 95.8206 73.2893C98.8754 76.8728 101.882 80.5053 105.034 84.236Z" fill="#43B9DA"/>
<path d="M79.9646 27.6368C79.8677 29.7967 79.8192 31.4166 79.7222 32.9874C79.5767 34.7055 77.8796 36.1291 76.1825 36.08C73.0792 35.9818 71.77 35.1964 71.3336 32.1529C70.6547 27.4405 70.3153 22.6789 69.8789 17.9664C69.7819 16.641 70.4608 15.7083 71.77 15.4138C73.2731 15.0702 74.7763 14.7757 76.2795 14.6775C77.8796 14.5793 78.7039 15.3647 78.8979 17.0337C79.3343 20.7644 79.6737 24.4952 79.9646 27.6368Z" fill="#43B9DA"/>
<path d="M62.9936 33.3797C60.6176 33.3306 59.066 33.1343 58.4356 29.4526C57.7083 25.4274 57.4658 21.304 57.1264 17.2296C56.981 15.4134 57.6113 14.7261 59.3084 14.2353C60.3752 13.9407 61.442 13.6462 62.5087 13.548C64.0604 13.4008 64.9817 14.088 65.2241 15.6588C65.8545 20.0277 66.4364 24.3965 66.9213 28.7654C67.0667 29.8944 66.9697 30.9744 66.1454 32.0543C65.2726 33.1834 64.2543 33.6252 62.9936 33.3797Z" fill="#43B9DA"/>
<path d="M21.7778 0C24.3477 3.58345 27.3056 6.77419 31.1362 9.08134C35.3548 11.6339 39.9128 13.4011 44.6162 15.0701C42.8221 15.4137 40.9795 15.6592 39.1854 16.101C31.8636 17.9172 24.3962 17.3773 16.9289 17.3773C16.4925 17.3773 15.8621 16.9355 15.7166 16.4937C14.5529 13.9411 14.5529 11.4867 16.25 9.03226C17.1713 7.75596 17.7047 6.18513 18.432 4.71248C21.8263 8.4432 26.0448 11.4867 31.4272 12.5666C26.5782 9.86676 22.5051 6.3324 19.5473 1.57083C20.1776 1.03086 20.711 0.539972 21.2444 0.0490884C21.3899 6.949e-08 21.5838 0 21.7778 0Z" fill="#3B4047"/>
<path d="M21.7778 0C24.3477 3.58345 27.3056 6.77419 31.1362 9.08134C35.3548 11.6339 39.9128 13.4011 44.6162 15.0701C42.8221 15.4137 40.9795 15.6592 39.1854 16.101C31.8636 17.9172 24.3962 17.3773 16.9289 17.3773C16.4925 17.3773 15.8621 16.9355 15.7166 16.4937C14.5529 13.9411 14.5529 11.4867 16.25 9.03226C17.1713 7.75596 17.7047 6.18513 18.432 4.71248C21.8263 8.4432 26.0448 11.4867 31.4272 12.5666C26.5782 9.86676 22.5051 6.3324 19.5473 1.57083C20.1776 1.03086 20.711 0.539972 21.2444 0.0490884C21.3899 6.949e-08 21.5838 0 21.7778 0Z" fill="url(#paint0_radial)"/>
<path d="M29.5844 84.0885C26.3841 87.1811 23.2808 90.1754 20.129 93.1207C19.935 93.3171 19.3047 93.3662 19.0137 93.2189C10.6251 87.6228 3.98207 80.6032 0.781781 70.7365C0.345378 69.3129 0.248399 67.7912 0.19991 66.2694C0.0544424 63.3241 0.102932 60.3788 0.00595335 57.4335C-0.0425359 56.2554 0.19991 55.2736 0.927249 54.3409C1.31516 53.8501 1.70308 53.3592 1.99401 52.8192C3.10926 50.6102 5.00035 50.3157 7.18236 50.6102C8.49157 50.7575 9.2674 51.4938 9.84927 52.721C10.7706 54.5373 11.7888 56.3045 12.8556 58.0226C15.3286 61.9496 17.947 65.8767 20.4684 69.8038C23.4263 74.5163 26.4811 79.2778 29.5844 84.0885Z" fill="#3B4047"/>
<path d="M29.5844 84.0885C26.3841 87.1811 23.2808 90.1754 20.129 93.1207C19.935 93.3171 19.3047 93.3662 19.0137 93.2189C10.6251 87.6228 3.98207 80.6032 0.781781 70.7365C0.345378 69.3129 0.248399 67.7912 0.19991 66.2694C0.0544424 63.3241 0.102932 60.3788 0.00595335 57.4335C-0.0425359 56.2554 0.19991 55.2736 0.927249 54.3409C1.31516 53.8501 1.70308 53.3592 1.99401 52.8192C3.10926 50.6102 5.00035 50.3157 7.18236 50.6102C8.49157 50.7575 9.2674 51.4938 9.84927 52.721C10.7706 54.5373 11.7888 56.3045 12.8556 58.0226C15.3286 61.9496 17.947 65.8767 20.4684 69.8038C23.4263 74.5163 26.4811 79.2778 29.5844 84.0885Z" fill="url(#paint1_radial)"/>
<path d="M123.799 52.5736C126.514 53.3099 129.084 54.3899 131.169 56.4516C132.527 57.777 133.351 59.2987 133.012 61.3604C132.867 62.244 132.867 63.1767 132.964 64.0112C133.691 68.7237 132.091 72.8962 129.86 76.8723C124.769 85.9046 117.205 92.1879 108.089 96.7531C106.973 97.2931 105.858 97.784 104.597 98.0785C108.137 93.1697 111.677 88.2608 115.265 83.2538C111.192 78.8359 107.119 74.467 102.997 70C111.58 66.1711 119.435 61.655 123.799 52.5736Z" fill="#3B4047"/>
<path d="M123.799 52.5736C126.514 53.3099 129.084 54.3899 131.169 56.4516C132.527 57.777 133.351 59.2987 133.012 61.3604C132.867 62.244 132.867 63.1767 132.964 64.0112C133.691 68.7237 132.091 72.8962 129.86 76.8723C124.769 85.9046 117.205 92.1879 108.089 96.7531C106.973 97.2931 105.858 97.784 104.597 98.0785C108.137 93.1697 111.677 88.2608 115.265 83.2538C111.192 78.8359 107.119 74.467 102.997 70C111.58 66.1711 119.435 61.655 123.799 52.5736Z" fill="url(#paint2_radial)"/>
<path d="M9.17046 45.5047C6.16413 44.3756 3.1578 43.1484 0.490887 46.2901C0.393908 46.241 0.29693 46.1428 0.199951 46.0937C0.490887 44.7684 0.684844 43.3939 1.07276 42.1176C2.28499 38.0432 4.46701 34.6071 7.6673 31.809C8.24917 31.3181 8.73406 30.7782 9.21895 30.1891C11.207 27.7838 13.7285 26.262 16.7348 25.4766C17.4621 25.2803 18.141 24.9857 18.7713 24.593C22.3595 22.2368 26.2387 20.7641 30.5542 20.8132C30.9421 20.8132 31.3785 20.7151 31.6695 20.5187C35.5001 18.2116 39.7187 17.8188 44.0827 18.2116C44.8586 18.2606 45.6829 18.2116 46.4102 18.0643C49.0286 17.4261 51.1622 17.328 53.5381 17.7698C53.7321 19.9787 53.8776 22.2368 54.0715 24.6912C52.3744 24.8876 50.7258 25.0348 49.0771 25.1821C47.477 25.3785 45.8768 25.5748 44.0827 25.7712C44.4221 24.3476 44.7616 23.0713 45.1495 21.4514C44.4221 22.335 43.9373 22.8749 43.4524 23.464C41.9007 25.2803 40.0581 26.6057 37.5367 26.9002C35.6941 27.0965 33.9 27.6365 32.1544 27.9801C32.1059 26.5566 32.0089 25.1821 31.9604 23.8076C31.8634 23.8076 31.7665 23.8076 31.6695 23.8076C31.1846 25.0348 30.7482 26.262 30.2148 27.4893C29.8269 28.4219 29.0995 28.8146 28.1782 29.2073C24.9295 30.4836 21.5352 31.5636 18.6259 33.3799C14.7467 35.7852 11.0615 38.7305 9.65536 43.4921C9.50989 44.1793 9.36442 44.8174 9.17046 45.5047Z" fill="#3B4047"/>
<path d="M9.17046 45.5047C6.16413 44.3756 3.1578 43.1484 0.490887 46.2901C0.393908 46.241 0.29693 46.1428 0.199951 46.0937C0.490887 44.7684 0.684844 43.3939 1.07276 42.1176C2.28499 38.0432 4.46701 34.6071 7.6673 31.809C8.24917 31.3181 8.73406 30.7782 9.21895 30.1891C11.207 27.7838 13.7285 26.262 16.7348 25.4766C17.4621 25.2803 18.141 24.9857 18.7713 24.593C22.3595 22.2368 26.2387 20.7641 30.5542 20.8132C30.9421 20.8132 31.3785 20.7151 31.6695 20.5187C35.5001 18.2116 39.7187 17.8188 44.0827 18.2116C44.8586 18.2606 45.6829 18.2116 46.4102 18.0643C49.0286 17.4261 51.1622 17.328 53.5381 17.7698C53.7321 19.9787 53.8776 22.2368 54.0715 24.6912C52.3744 24.8876 50.7258 25.0348 49.0771 25.1821C47.477 25.3785 45.8768 25.5748 44.0827 25.7712C44.4221 24.3476 44.7616 23.0713 45.1495 21.4514C44.4221 22.335 43.9373 22.8749 43.4524 23.464C41.9007 25.2803 40.0581 26.6057 37.5367 26.9002C35.6941 27.0965 33.9 27.6365 32.1544 27.9801C32.1059 26.5566 32.0089 25.1821 31.9604 23.8076C31.8634 23.8076 31.7665 23.8076 31.6695 23.8076C31.1846 25.0348 30.7482 26.262 30.2148 27.4893C29.8269 28.4219 29.0995 28.8146 28.1782 29.2073C24.9295 30.4836 21.5352 31.5636 18.6259 33.3799C14.7467 35.7852 11.0615 38.7305 9.65536 43.4921C9.50989 44.1793 9.36442 44.8174 9.17046 45.5047Z" fill="url(#paint3_radial)"/>
<path d="M82.5831 17.9175C84.9106 17.4757 87.0441 17.6229 89.1292 18.3593C89.8565 18.6047 90.6808 18.752 91.4082 18.752C96.0631 18.752 100.621 19.2428 104.84 21.5991C105.422 21.9427 106.197 21.9918 106.876 22.09C111.289 22.4827 115.119 24.0535 118.611 26.8515C120.987 28.766 123.702 30.2386 125.981 32.3003C131.072 36.8656 133.4 42.658 133.157 49.7267C132.818 49.5304 132.527 49.4322 132.333 49.2849C130.248 47.7632 127.969 46.7323 125.448 46.3396C124.526 46.1923 124.09 45.8978 123.896 44.8179C123.411 42.2162 122.199 39.909 120.308 38.0928C117.592 35.4911 114.828 32.8403 111.192 31.6131C108.476 30.6804 107.313 28.5696 106.537 26.0661C106.391 25.6243 106.294 25.1334 105.858 24.6426C105.858 26.2134 105.858 27.7842 105.858 29.355C102.658 28.6187 99.3604 28.0297 96.2086 26.9988C94.9479 26.6061 93.9296 25.2316 92.8144 24.2989C92.378 23.9062 91.99 23.3663 91.3597 22.9736C91.6021 24.0535 91.8446 25.1334 92.1355 26.3607C89.1292 25.9679 86.2198 25.6243 83.262 25.2316C83.068 22.7281 82.8256 20.3719 82.5831 17.9175Z" fill="#3B4047"/>
<path d="M82.5831 17.9175C84.9106 17.4757 87.0441 17.6229 89.1292 18.3593C89.8565 18.6047 90.6808 18.752 91.4082 18.752C96.0631 18.752 100.621 19.2428 104.84 21.5991C105.422 21.9427 106.197 21.9918 106.876 22.09C111.289 22.4827 115.119 24.0535 118.611 26.8515C120.987 28.766 123.702 30.2386 125.981 32.3003C131.072 36.8656 133.4 42.658 133.157 49.7267C132.818 49.5304 132.527 49.4322 132.333 49.2849C130.248 47.7632 127.969 46.7323 125.448 46.3396C124.526 46.1923 124.09 45.8978 123.896 44.8179C123.411 42.2162 122.199 39.909 120.308 38.0928C117.592 35.4911 114.828 32.8403 111.192 31.6131C108.476 30.6804 107.313 28.5696 106.537 26.0661C106.391 25.6243 106.294 25.1334 105.858 24.6426C105.858 26.2134 105.858 27.7842 105.858 29.355C102.658 28.6187 99.3604 28.0297 96.2086 26.9988C94.9479 26.6061 93.9296 25.2316 92.8144 24.2989C92.378 23.9062 91.99 23.3663 91.3597 22.9736C91.6021 24.0535 91.8446 25.1334 92.1355 26.3607C89.1292 25.9679 86.2198 25.6243 83.262 25.2316C83.068 22.7281 82.8256 20.3719 82.5831 17.9175Z" fill="url(#paint4_radial)"/>
<path d="M134.854 20.568C130.442 21.4025 126.029 22.1388 121.665 23.0224C119.968 23.366 118.465 23.1696 116.816 22.4824C112.646 20.8134 108.379 19.4389 104.112 17.9172C103.676 17.7699 103.239 17.5736 102.512 17.3281C108.719 13.6465 111.531 7.90317 112.84 1.27625C117.204 2.94525 116.865 1.91439 115.847 6.23417C115.119 9.32673 113.616 12.2229 112.404 15.1682C112.21 15.6591 111.919 16.1009 111.822 16.69C113.034 15.561 114.246 14.481 115.507 13.352C116.477 12.4684 117.398 11.6339 118.368 10.7503C120.841 8.44314 120.841 8.44314 123.896 9.81762C126.563 10.9957 128.842 12.6157 130.442 15.2173C131.412 16.7391 132.769 18.0154 133.981 19.3408C134.272 19.6353 134.66 19.8807 135 20.1262C135 20.3225 134.903 20.4698 134.854 20.568Z" fill="#3B4047"/>
<path d="M134.854 20.568C130.442 21.4025 126.029 22.1388 121.665 23.0224C119.968 23.366 118.465 23.1696 116.816 22.4824C112.646 20.8134 108.379 19.4389 104.112 17.9172C103.676 17.7699 103.239 17.5736 102.512 17.3281C108.719 13.6465 111.531 7.90317 112.84 1.27625C117.204 2.94525 116.865 1.91439 115.847 6.23417C115.119 9.32673 113.616 12.2229 112.404 15.1682C112.21 15.6591 111.919 16.1009 111.822 16.69C113.034 15.561 114.246 14.481 115.507 13.352C116.477 12.4684 117.398 11.6339 118.368 10.7503C120.841 8.44314 120.841 8.44314 123.896 9.81762C126.563 10.9957 128.842 12.6157 130.442 15.2173C131.412 16.7391 132.769 18.0154 133.981 19.3408C134.272 19.6353 134.66 19.8807 135 20.1262C135 20.3225 134.903 20.4698 134.854 20.568Z" fill="url(#paint5_radial)"/>
<path d="M35.5973 36.1291C34.6275 36.7182 33.7547 37.5527 32.7364 37.8963C30.6514 38.6817 28.5179 39.4671 26.2874 39.8598C23.9114 40.3016 21.7779 41.1361 19.8868 42.5597C17.4138 44.4251 14.9894 46.4377 12.6134 48.3521C12.6619 45.4559 13.7771 42.8542 15.7167 40.5471C18.8685 36.8164 22.9901 34.7547 27.3541 32.9384C29.7786 31.9566 31.8151 32.4475 33.8032 33.9202C34.4821 34.411 35.1609 34.9019 35.8398 35.4419C35.7913 35.6382 35.6943 35.8837 35.5973 36.1291Z" fill="#3B4047"/>
<path d="M35.5973 36.1291C34.6275 36.7182 33.7547 37.5527 32.7364 37.8963C30.6514 38.6817 28.5179 39.4671 26.2874 39.8598C23.9114 40.3016 21.7779 41.1361 19.8868 42.5597C17.4138 44.4251 14.9894 46.4377 12.6134 48.3521C12.6619 45.4559 13.7771 42.8542 15.7167 40.5471C18.8685 36.8164 22.9901 34.7547 27.3541 32.9384C29.7786 31.9566 31.8151 32.4475 33.8032 33.9202C34.4821 34.411 35.1609 34.9019 35.8398 35.4419C35.7913 35.6382 35.6943 35.8837 35.5973 36.1291Z" fill="url(#paint6_radial)"/>
<path d="M32.5422 31.0728C35.1122 30.4837 37.7306 29.6983 40.349 29.3056C42.3856 29.011 44.1312 29.9928 45.5374 31.4655C46.1192 32.0054 46.6041 32.6436 47.3799 33.4781C46.8466 31.2691 45.4889 30.0419 43.7917 28.6183C47.4769 28.1765 50.8227 27.7347 54.1684 27.342C54.6048 29.1583 55.0412 30.8273 55.4776 32.5945C53.926 33.4781 52.1804 33.5272 50.4348 33.5272C48.7861 33.4781 47.2345 33.6254 45.6343 34.4108C42.9189 35.638 39.8641 35.6871 36.8578 35.6871C36.5668 35.6871 36.2274 35.5398 36.0819 35.3434C34.9182 34.0181 33.803 32.5945 32.5422 31.0728Z" fill="#3B4047"/>
<path d="M32.5422 31.0728C35.1122 30.4837 37.7306 29.6983 40.349 29.3056C42.3856 29.011 44.1312 29.9928 45.5374 31.4655C46.1192 32.0054 46.6041 32.6436 47.3799 33.4781C46.8466 31.2691 45.4889 30.0419 43.7917 28.6183C47.4769 28.1765 50.8227 27.7347 54.1684 27.342C54.6048 29.1583 55.0412 30.8273 55.4776 32.5945C53.926 33.4781 52.1804 33.5272 50.4348 33.5272C48.7861 33.4781 47.2345 33.6254 45.6343 34.4108C42.9189 35.638 39.8641 35.6871 36.8578 35.6871C36.5668 35.6871 36.2274 35.5398 36.0819 35.3434C34.9182 34.0181 33.803 32.5945 32.5422 31.0728Z" fill="url(#paint7_radial)"/>
<path d="M101.3 36.8658C102.173 36.1786 102.851 35.5895 103.579 35.0005C105.179 33.626 106.731 32.9878 108.913 34.166C112.161 35.9331 115.313 37.7494 117.689 40.6456C119.58 42.9528 120.647 45.5545 120.792 48.7943C120.453 48.4998 120.211 48.3525 120.065 48.1561C117.592 45.309 114.586 43.1491 111.337 41.3329C110.852 41.0874 110.27 41.0383 109.688 40.8911C106.779 40.1547 104.209 38.7312 101.3 36.8658Z" fill="#3B4047"/>
<path d="M101.3 36.8658C102.173 36.1786 102.851 35.5895 103.579 35.0005C105.179 33.626 106.731 32.9878 108.913 34.166C112.161 35.9331 115.313 37.7494 117.689 40.6456C119.58 42.9528 120.647 45.5545 120.792 48.7943C120.453 48.4998 120.211 48.3525 120.065 48.1561C117.592 45.309 114.586 43.1491 111.337 41.3329C110.852 41.0874 110.27 41.0383 109.688 40.8911C106.779 40.1547 104.209 38.7312 101.3 36.8658Z" fill="url(#paint8_radial)"/>
<path d="M104.452 32.2999C103.385 33.7725 102.415 35.1961 101.349 36.5214C101.106 36.816 100.524 36.9632 100.088 36.9632C96.5481 37.1596 93.4448 35.8342 90.293 34.1652C91.6022 32.4471 92.9599 30.9254 95.0449 30.3363C95.7238 30.14 96.5481 30.0909 97.2269 30.2872C99.6999 30.9254 102.124 31.6617 104.452 32.2999Z" fill="#3B4047"/>
<path d="M104.452 32.2999C103.385 33.7725 102.415 35.1961 101.349 36.5214C101.106 36.816 100.524 36.9632 100.088 36.9632C96.5481 37.1596 93.4448 35.8342 90.293 34.1652C91.6022 32.4471 92.9599 30.9254 95.0449 30.3363C95.7238 30.14 96.5481 30.0909 97.2269 30.2872C99.6999 30.9254 102.124 31.6617 104.452 32.2999Z" fill="url(#paint9_radial)"/>
<path d="M83.4562 27.7841C86.8504 28.324 90.0992 28.8149 93.2025 29.3058C92.1358 30.9748 91.1175 32.4965 90.0507 34.0674C89.8568 34.3128 89.4689 34.4601 89.1779 34.5582C87.0929 35.1964 85.2503 34.7055 83.6502 33.331C83.4077 33.1347 83.2137 32.6929 83.2137 32.3493C83.2622 30.8766 83.3592 29.4531 83.4562 27.7841Z" fill="#3B4047"/>
<path d="M83.4562 27.7841C86.8504 28.324 90.0992 28.8149 93.2025 29.3058C92.1358 30.9748 91.1175 32.4965 90.0507 34.0674C89.8568 34.3128 89.4689 34.4601 89.1779 34.5582C87.0929 35.1964 85.2503 34.7055 83.6502 33.331C83.4077 33.1347 83.2137 32.6929 83.2137 32.3493C83.2622 30.8766 83.3592 29.4531 83.4562 27.7841Z" fill="url(#paint10_radial)"/>
</g>
<defs>
<radialGradient id="paint0_radial" cx="0" cy="0" r="1" gradientUnits="userSpaceOnUse" gradientTransform="translate(35.5037 15.9374) rotate(90) scale(17.4085 29.6405)">
<stop stop-color="#488BAA" stop-opacity="0.5"/>
<stop offset="1" stop-color="#88B1B7" stop-opacity="0.01"/>
</radialGradient>
<radialGradient id="paint1_radial" cx="0" cy="0" r="1" gradientUnits="userSpaceOnUse" gradientTransform="translate(20.5119 89.5902) rotate(90) scale(42.6823 29.5101)">
<stop stop-color="#488BAA" stop-opacity="0.5"/>
<stop offset="1" stop-color="#88B1B7" stop-opacity="0.01"/>
</radialGradient>
<radialGradient id="paint2_radial" cx="0" cy="0" r="1" gradientUnits="userSpaceOnUse" gradientTransform="translate(123.897 94.1284) rotate(90) scale(45.3906 30.0682)">
<stop stop-color="#488BAA" stop-opacity="0.5"/>
<stop offset="1" stop-color="#88B1B7" stop-opacity="0.01"/>
</radialGradient>
<radialGradient id="paint3_radial" cx="0" cy="0" r="1" gradientUnits="userSpaceOnUse" gradientTransform="translate(37.5511 43.7908) rotate(90) scale(28.7191 53.7363)">
<stop stop-color="#488BAA" stop-opacity="0.5"/>
<stop offset="1" stop-color="#88B1B7" stop-opacity="0.01"/>
</radialGradient>
<radialGradient id="paint4_radial" cx="0" cy="0" r="1" gradientUnits="userSpaceOnUse" gradientTransform="translate(117.66 46.9439) rotate(90) scale(31.9773 50.4644)">
<stop stop-color="#488BAA" stop-opacity="0.5"/>
<stop offset="1" stop-color="#88B1B7" stop-opacity="0.01"/>
</radialGradient>
<radialGradient id="paint5_radial" cx="0" cy="0" r="1" gradientUnits="userSpaceOnUse" gradientTransform="translate(125.037 21.2859) rotate(90) scale(21.8567 32.4062)">
<stop stop-color="#488BAA" stop-opacity="0.5"/>
<stop offset="1" stop-color="#88B1B7" stop-opacity="0.01"/>
</radialGradient>
<radialGradient id="paint6_radial" cx="0" cy="0" r="1" gradientUnits="userSpaceOnUse" gradientTransform="translate(28.7171 46.9698) rotate(90) scale(15.8845 23.168)">
<stop stop-color="#488BAA" stop-opacity="0.5"/>
<stop offset="1" stop-color="#88B1B7" stop-opacity="0.01"/>
</radialGradient>
<radialGradient id="paint7_radial" cx="0" cy="0" r="1" gradientUnits="userSpaceOnUse" gradientTransform="translate(48.4442 34.9627) rotate(90) scale(8.32406 22.8778)">
<stop stop-color="#488BAA" stop-opacity="0.5"/>
<stop offset="1" stop-color="#88B1B7" stop-opacity="0.01"/>
</radialGradient>
<radialGradient id="paint8_radial" cx="0" cy="0" r="1" gradientUnits="userSpaceOnUse" gradientTransform="translate(114.815 47.4709) rotate(90) scale(15.2067 19.4437)">
<stop stop-color="#488BAA" stop-opacity="0.5"/>
<stop offset="1" stop-color="#88B1B7" stop-opacity="0.01"/>
</radialGradient>
<radialGradient id="paint9_radial" cx="0" cy="0" r="1" gradientUnits="userSpaceOnUse" gradientTransform="translate(100.11 36.3905) rotate(90) scale(6.80322 14.1233)">
<stop stop-color="#488BAA" stop-opacity="0.5"/>
<stop offset="1" stop-color="#88B1B7" stop-opacity="0.01"/>
</radialGradient>
<radialGradient id="paint10_radial" cx="0" cy="0" r="1" gradientUnits="userSpaceOnUse" gradientTransform="translate(90.1393 34.2226) rotate(90) scale(7.03282 9.96371)">
<stop stop-color="#488BAA" stop-opacity="0.5"/>
<stop offset="1" stop-color="#88B1B7" stop-opacity="0.01"/>
</radialGradient>
<clipPath id="clip0">
<rect width="135" height="105" fill="white"/>
</clipPath>
</defs>
</svg>
